<svg version="1.1" id="Layer_1" xmlns="http://www.w3.org/2000/svg" xmlns:xlink="http://www.w3.org/1999/xlink" x="0px" y="0px"
	 width="100%" viewBox="0 0 1024 672" enable-background="new 0 0 1024 672" xml:space="preserve">
<path fill="#000000" opacity="1.000000" stroke="none" 
	d="
M230.279572,264.386383 
	C236.930267,242.576920 245.074905,221.869232 258.061462,203.379425 
	C259.950531,200.689835 259.494080,198.785721 257.419403,196.371674 
	C234.691925,169.926285 235.392258,130.640625 258.924194,105.678726 
	C285.232849,77.771393 332.193207,77.701973 358.871735,105.725655 
	C361.915649,108.923019 363.996246,109.483162 368.040741,107.315933 
	C388.517578,96.343605 409.979431,87.785812 432.705048,82.667244 
	C435.827209,81.964020 437.048187,80.273170 437.562500,77.283798 
	C442.752380,47.117989 463.574524,25.203823 493.697723,19.635040 
	C536.804688,11.665999 570.801392,41.621159 576.270020,76.546661 
	C576.883789,80.466461 578.427673,82.228065 582.265686,83.154137 
	C605.072449,88.657227 626.558411,97.588783 646.989624,109.035843 
	C650.049438,110.750221 651.657715,110.052666 653.699402,107.701218 
	C669.089905,89.976006 688.786560,82.492355 711.962402,83.733429 
	C741.574219,85.319138 768.483582,109.752716 773.335327,139.177567 
	C777.030090,161.584961 771.706909,181.492279 756.588928,198.467636 
	C753.432312,202.012131 753.263367,204.522186 755.740784,208.368805 
	C766.442444,224.984451 774.425110,242.905762 780.173828,261.789764 
	C781.275940,265.410065 783.421753,265.679169 786.504089,265.739288 
	C807.868408,266.156006 825.855896,273.951752 838.926636,291.192474 
	C857.815002,316.106812 856.607422,352.717377 834.227234,376.600220 
	C821.508850,390.172455 805.971436,397.437653 787.239929,397.248474 
	C783.806641,397.213806 782.153137,398.464142 781.218262,401.736969 
	C775.368530,422.216431 766.346680,441.294952 755.042114,459.285645 
	C753.098022,462.379608 753.993896,464.277985 755.783630,466.797607 
	C773.412109,491.614990 773.691956,522.436401 756.037109,547.022827 
	C745.249268,562.046021 730.435852,570.917175 711.904480,573.416199 
	C690.015503,576.367859 671.064148,570.393005 655.270325,554.966797 
	C652.597290,552.355957 650.743347,552.842285 647.977722,554.473938 
	C624.581116,568.276672 599.704163,578.443420 573.154724,584.356384 
	C570.195923,585.015381 568.734985,586.774170 567.465698,589.320557 
	C544.341187,635.713074 480.008728,640.930237 449.764923,598.897827 
	C448.890198,597.682129 447.702881,596.507385 447.343445,595.134888 
	C445.129303,586.679382 438.504364,584.949219 431.100586,583.133789 
	C404.263672,576.553284 378.994446,565.967285 354.976562,551.584534 
	C348.839966,557.364319 342.546112,562.941406 335.047272,567.043701 
	C291.248444,591.004395 236.763519,558.768921 236.639084,508.812469 
	C236.592682,490.181671 241.996277,473.752594 255.416260,460.410370 
	C257.097717,458.738647 257.361267,457.448425 255.959549,455.289093 
	C245.023224,438.441895 236.181046,420.585999 230.557709,401.231201 
	C229.837296,398.751556 228.504990,397.407684 225.629501,397.260315 
	C196.035141,395.743683 171.194809,372.196716 166.343231,342.948456 
	C160.388489,307.049683 184.069916,272.426544 219.836502,266.228668 
	C223.240768,265.638733 226.859131,266.550140 230.279572,264.386383 
M357.119263,457.517273 
	C356.116882,458.981537 354.152283,459.730377 353.870789,461.905334 
	C354.216400,462.397217 354.555023,462.965912 354.975739,463.465485 
	C372.670898,484.476227 378.057190,517.328613 361.261200,542.472046 
	C358.953979,545.925964 359.883545,547.592896 363.115814,549.453064 
	C383.882996,561.404602 405.938629,570.220947 428.976746,576.616760 
	C432.200775,577.511780 435.495605,579.000671 439.727661,578.123840 
	C434.123810,556.179626 436.377258,535.466553 449.831665,517.139893 
	C463.395264,498.664581 482.233887,489.184326 505.084076,488.807770 
	C524.378479,488.489868 541.693176,494.869904 555.093689,508.966766 
	C573.553772,528.385986 578.593079,551.804504 572.454163,578.017151 
	C574.401489,577.732971 575.734253,577.659241 577.003296,577.335510 
	C600.547974,571.328857 622.783875,562.138367 643.902039,550.121094 
	C647.690857,547.965088 647.480408,546.266113 645.517212,542.781250 
	C631.471252,517.847656 631.546082,493.022552 647.063965,468.689545 
	C651.648987,461.499939 651.932495,461.593323 645.963379,455.681488 
	C632.230774,442.080627 618.425110,428.553375 604.698608,414.946411 
	C603.239990,413.500549 600.859863,411.755371 602.833862,409.511475 
	C604.932495,407.125763 607.042236,409.059784 608.848755,410.602509 
	C609.353943,411.033936 609.795044,411.540070 610.270020,412.007355 
	C622.977600,424.509796 635.655884,437.042236 648.418030,449.488739 
	C651.104248,452.108521 653.412476,455.190430 656.536621,457.108459 
	C687.434875,433.776276 717.943726,434.076355 748.097534,457.460541 
	C748.658081,457.074799 749.021606,456.946930 749.190796,456.690704 
	C760.746094,439.195312 769.229309,420.274109 775.355225,400.259491 
	C776.117065,397.770416 775.263916,396.707428 772.655273,396.188293 
	C765.433594,394.751251 758.549683,392.324310 752.231628,388.412903 
	C734.048767,377.156097 723.878601,360.666199 720.866394,339.739502 
	C720.239441,335.384125 718.537964,334.278961 714.458862,334.314270 
	C695.795593,334.475739 677.130188,334.385193 658.465515,334.373596 
	C656.967529,334.372681 655.451538,334.411316 653.976501,334.201813 
	C652.375488,333.974457 651.050293,333.036224 651.044006,331.309113 
	C651.037170,329.446869 652.493591,328.850403 654.139404,328.776154 
	C655.470337,328.716064 656.804749,328.718292 658.137573,328.718018 
	C674.802429,328.714233 691.467285,328.720215 708.132141,328.712769 
	C719.214172,328.707794 719.082031,328.670715 721.377197,318.295593 
	C727.297363,291.533203 743.634460,274.633850 770.096191,267.665100 
	C774.078613,266.616302 775.037415,265.372040 773.671875,261.185150 
	C770.357788,251.022842 766.508972,241.111313 761.754272,231.559616 
	C757.620544,223.255508 753.392639,214.984802 747.754639,207.497833 
	C715.295288,228.159882 684.961365,225.378525 656.823608,200.467651 
	C656.200684,200.612320 655.985535,200.595856 655.883789,200.695343 
	C643.019470,213.270218 630.165344,225.855560 617.303955,238.433472 
	C616.113831,239.597382 614.922729,240.766953 613.654968,241.842957 
	C612.434570,242.878769 611.063477,243.490128 609.655151,242.140930 
	C608.362732,240.902771 608.505798,239.398560 609.288574,238.020233 
	C609.853699,237.025024 610.667664,236.139267 611.491882,235.327789 
	C623.839111,223.171524 636.088501,210.911438 648.653198,198.983749 
	C651.743164,196.050537 651.940674,194.199249 649.548340,190.713104 
	C638.991089,175.329010 635.619263,158.326950 638.468628,139.866104 
	C639.784729,131.338776 643.390320,123.777199 647.107300,116.305534 
	C633.659302,106.986023 596.159058,91.370163 581.115479,88.599487 
	C578.485535,88.115120 577.458618,88.937325 577.208374,91.528946 
	C576.648499,97.325348 575.846252,103.096428 574.093140,108.678627 
	C565.277893,136.748276 537.781494,160.127289 500.873749,157.244751 
	C472.673401,155.042267 445.493011,133.609436 438.526459,101.558479 
	C437.526917,96.959999 437.953003,92.017761 435.673004,87.567635 
	C414.447479,93.251511 394.106567,100.436890 374.875793,110.611382 
	C366.894684,114.833969 366.830719,114.710587 370.691711,122.493996 
	C370.913330,122.940735 371.101959,123.404381 371.294495,123.864944 
	C381.441956,148.139664 378.657166,171.065628 363.694031,192.476288 
	C361.211884,196.028000 361.533508,197.853104 364.537140,200.677155 
	C376.187592,211.631180 387.590027,222.849045 399.076691,233.977036 
	C399.912018,234.786224 400.740387,235.615601 401.468658,236.518906 
	C402.379272,237.648346 402.718811,238.881561 401.593353,240.116730 
	C400.570801,241.238998 399.239990,241.555008 397.967682,240.891663 
	C396.813538,240.289948 395.794403,239.363251 394.843994,238.446854 
	C383.089203,227.113434 371.263977,215.850082 359.689819,204.334564 
	C356.959595,201.618179 355.442993,201.487976 352.430084,204.067429 
	C328.995758,224.130508 295.918976,225.665482 270.462311,208.197464 
	C268.744904,207.018997 267.347778,205.179214 264.828400,204.931549 
	C264.039551,205.985275 263.188782,206.995132 262.475098,208.094009 
	C251.984329,224.247818 243.722488,241.414871 238.230194,259.940491 
	C236.905319,264.409332 237.899475,265.575897 242.286713,266.398926 
	C272.017426,271.976501 292.650208,293.820679 296.270142,323.476166 
	C296.761230,327.499268 298.241974,328.834839 302.234711,328.799194 
	C317.231232,328.665466 332.230804,328.770081 347.228058,328.911560 
	C349.953949,328.937286 354.297394,327.631378 354.156799,332.121033 
	C354.036316,335.968719 349.870392,334.985443 347.264099,335.007385 
	C332.101807,335.135193 316.937164,335.180206 301.775360,335.038666 
	C298.024170,335.003662 296.711334,336.164581 296.196045,340.052277 
	C292.291901,369.510101 271.139221,391.305237 241.977081,396.364044 
	C240.065628,396.695648 238.029083,396.822662 236.170563,398.771576 
	C241.843719,418.367493 250.954300,436.411072 262.287415,453.788330 
	C264.351929,452.521454 265.771240,451.686340 267.155029,450.795959 
	C291.865417,434.896545 322.508331,436.294281 345.464264,454.584930 
	C348.318237,456.858887 349.786041,456.197540 352.043396,453.907745 
	C366.780731,438.958527 381.651520,424.140808 396.498871,409.300262 
	C397.314972,408.484558 398.237946,407.713013 399.244690,407.167114 
	C400.431366,406.523651 401.826965,406.164185 402.942200,407.313812 
	C404.150818,408.559631 404.170715,410.060699 403.142090,411.406464 
	C402.237701,412.589752 401.160614,413.649323 400.100983,414.704437 
	C385.935699,428.809814 371.760040,442.904724 357.119263,457.517273 
M471.462952,140.041397 
	C487.001404,150.885635 504.269348,153.911209 522.365662,149.498993 
	C554.194397,141.738556 576.818970,111.523827 570.080261,76.268860 
	C562.756592,37.953434 524.870178,16.022354 487.508728,27.384031 
	C462.082947,35.116047 446.224304,56.261433 443.567322,79.954819 
	C440.779877,104.811798 450.833252,124.743706 471.462952,140.041397 
M678.654663,96.145836 
	C655.215332,107.190735 640.346863,133.732422 644.215027,159.760040 
	C649.219666,193.434982 676.466003,216.662018 710.470947,214.632812 
	C746.256042,212.497360 771.189453,180.842621 768.392090,147.639801 
	C764.599487,102.626610 718.937012,77.185211 678.654663,96.145836 
M760.079224,277.574005 
	C740.377502,287.448395 728.410767,303.373627 726.607178,325.201080 
	C723.154663,366.983002 758.377686,397.059692 796.087036,390.632507 
	C827.820740,385.223785 850.173035,356.462860 845.261841,322.719727 
	C839.428711,282.642792 797.891296,260.743774 760.079224,277.574005 
M246.537888,485.032196 
	C242.258911,496.208649 241.328232,507.793945 243.643341,519.398804 
	C250.215927,552.345093 281.619324,573.507263 314.781647,567.761902 
	C349.953156,561.668396 377.637329,521.930237 359.690002,483.277618 
	C348.523956,459.229767 329.455322,445.708405 302.492767,446.476685 
	C276.359009,447.221375 257.601898,460.249481 246.537888,485.032196 
M525.500916,497.993134 
	C519.971375,496.016418 514.257263,495.242493 508.400177,494.947113 
	C472.238464,493.123749 437.272430,524.495605 443.632996,567.033752 
	C448.875366,602.093201 479.405914,626.274170 515.291626,620.631958 
	C550.117310,615.156433 572.539429,584.455994 568.287415,550.570496 
	C565.079834,525.008423 550.656799,507.333191 525.500916,497.993134 
M758.313416,530.708435 
	C763.221741,518.281006 763.999451,505.676941 761.052612,492.566498 
	C754.593872,463.831146 724.242676,442.439728 695.091797,446.482117 
	C654.597351,452.097504 634.850342,489.621521 643.242981,522.600037 
	C650.928589,552.800598 682.972595,573.456421 713.422791,567.107910 
	C734.330566,562.748779 749.017029,550.647583 758.313416,530.708435 
M251.030487,129.529160 
	C245.422699,144.524017 245.995544,159.404709 251.318802,174.402298 
	C260.624664,200.620438 291.179169,218.620972 318.485931,213.398315 
	C355.438843,206.330765 377.888275,172.328751 369.066528,136.579727 
	C363.377930,113.527527 340.488312,93.240913 316.751678,91.335632 
	C286.454926,88.903778 264.544922,101.459564 251.030487,129.529160 
M195.039078,379.478668 
	C208.037109,388.556824 222.065277,392.968872 238.209503,390.795013 
	C273.849915,385.995941 295.853363,352.911499 289.642731,320.370117 
	C283.900238,290.281586 255.883606,269.320099 225.845001,272.018616 
	C197.025055,274.607574 172.021851,297.925476 171.520981,331.329651 
	C171.231339,350.646088 179.176514,366.810883 195.039078,379.478668 
z"/>
<path fill="#000000" opacity="1.000000" stroke="none" 
	d="
M564.390503,263.695496 
	C572.183044,267.405060 579.762878,265.852539 587.237915,264.228851 
	C595.362610,262.464020 603.393677,260.269653 611.473511,258.295227 
	C613.086487,257.901093 614.730042,257.621307 616.369446,257.348724 
	C618.052368,257.068909 619.392578,257.666840 619.949402,259.314545 
	C620.560303,261.122314 619.364014,262.119934 617.935242,262.812988 
	C617.196533,263.171326 616.365601,263.360535 615.559204,263.555267 
	C604.886902,266.132111 594.217590,268.721863 583.535095,271.256195 
	C573.391602,273.662598 564.101990,271.370178 555.302490,266.142700 
	C547.571045,261.549622 539.720642,257.157074 531.975464,252.586655 
	C521.174622,246.213120 508.062012,247.608536 498.741913,257.262024 
	C484.622101,271.886963 470.517212,286.511169 457.944946,302.519104 
	C455.687653,305.393219 453.042328,308.527405 456.110382,312.328644 
	C459.072571,315.998779 463.123932,317.326355 467.739014,316.288727 
	C470.579834,315.649963 472.805420,313.833923 474.762390,311.716492 
	C480.189026,305.844696 485.556671,299.916962 491.056671,294.114655 
	C500.981293,283.644531 509.658844,283.099670 520.682251,292.450867 
	C539.484558,308.400879 558.227173,324.422516 576.859253,340.570435 
	C579.620422,342.963470 581.782227,343.245270 585.257874,342.037872 
	C596.257141,338.216949 607.450928,334.955139 618.577393,331.502625 
	C620.771423,330.821838 623.479797,329.553070 624.441711,332.798828 
	C625.329712,335.794891 622.763733,336.654327 620.408447,337.366150 
	C611.008850,340.206787 601.621155,343.086792 592.238037,345.981537 
	C590.514526,346.513245 588.833130,347.181458 586.365967,348.059357 
	C591.882812,354.525299 595.995300,361.276672 591.813477,369.451416 
	C587.624573,377.640076 580.167969,378.518280 571.836853,376.955139 
	C570.798706,382.843018 569.040894,388.090240 563.523071,391.141357 
	C559.683350,393.264526 555.668457,393.839661 551.461182,392.939758 
	C549.680481,392.558899 548.441589,392.317261 547.392151,394.381165 
	C541.952148,405.080322 536.356262,407.338593 524.763306,403.778137 
	C524.455750,403.683685 524.111023,403.710236 523.431091,403.648163 
	C520.737000,411.479492 515.186340,415.593384 506.666656,415.340942 
	C502.660248,415.222229 499.265320,413.558685 496.208832,411.110504 
	C492.308228,407.986176 488.357208,404.916504 484.588715,401.638489 
	C482.337860,399.680603 480.658844,399.676971 478.794312,402.076721 
	C476.514435,405.011078 473.566772,407.223175 470.249573,408.865784 
	C463.074493,412.418671 454.635254,409.583344 451.292267,402.290253 
	C450.309418,400.146027 449.313690,399.212097 446.903137,399.304077 
	C439.481354,399.587433 434.566620,395.992554 432.166687,389.030670 
	C431.523346,387.164368 430.473907,386.409149 428.529449,386.355804 
	C421.459778,386.161743 417.673157,381.933868 415.961700,375.557770 
	C415.427704,373.568268 414.717438,372.550110 412.573730,371.966095 
	C402.177795,369.133942 398.305603,361.670776 401.634277,351.384216 
	C401.885773,350.606995 402.124481,349.825623 402.325775,349.184326 
	C401.308136,347.336029 399.648285,346.772797 398.047394,346.558044 
	C388.450256,345.270447 379.314453,342.007721 369.866272,340.120270 
	C366.303436,339.408508 365.395477,337.549652 365.788666,334.114471 
	C367.846985,316.133118 369.716187,298.130249 371.709442,280.141327 
	C372.678497,271.395721 373.775330,262.664307 374.813293,253.926331 
	C375.179077,250.846863 376.488800,249.453705 379.832031,250.591660 
	C389.759918,253.970871 399.717926,257.264801 409.705719,260.462341 
	C412.469025,261.346985 413.304108,262.795868 412.783600,265.663330 
	C409.755310,282.345215 406.853668,299.050232 403.930786,315.751160 
	C402.756470,322.461121 401.738037,329.200134 400.451202,335.887939 
	C399.767609,339.440430 402.364288,340.313782 404.465424,341.924255 
	C406.637299,343.588898 408.066650,342.583282 409.744995,341.326233 
	C411.736450,339.834656 413.687958,338.203796 415.888641,337.092499 
	C425.114655,332.433533 433.432587,335.221649 437.806885,344.613434 
	C438.936340,347.038422 440.273590,347.796326 442.715820,347.676147 
	C449.473633,347.343689 453.804413,350.605469 455.733398,356.990845 
	C456.428711,359.292542 457.381012,360.479370 460.082703,360.795074 
	C466.739868,361.572968 471.074097,365.401733 472.158112,372.168304 
	C472.529175,374.484711 473.406219,375.640900 475.613068,376.331116 
	C482.559113,378.503571 485.096313,383.819519 484.911011,390.586212 
	C484.843842,393.039734 485.439423,394.541046 487.416443,396.014679 
	C492.220123,399.595215 496.750763,403.540466 501.522888,407.165649 
	C504.997437,409.805115 508.717224,410.266602 512.653503,407.813110 
	C517.651794,404.697693 518.463806,400.020966 514.334717,395.804169 
	C508.723816,390.074036 502.131439,385.481812 495.961517,380.399750 
	C494.289795,379.022736 492.583923,377.684998 490.953369,376.260925 
	C489.652496,375.124847 488.413330,373.734192 489.630829,371.970856 
	C490.996399,369.993011 492.842316,370.747864 494.505859,371.700104 
	C495.367981,372.193573 496.172241,372.804718 496.947418,373.431061 
	C504.981018,379.923065 513.001953,386.430786 521.029785,392.929962 
	C523.620728,395.027527 526.189514,397.176239 529.309692,398.465790 
	C533.292786,400.112000 537.896973,398.689148 540.232422,395.056030 
	C542.748718,391.141449 541.792358,387.818207 538.365051,384.941895 
	C528.667542,376.803375 518.987610,368.643799 509.304596,360.488068 
	C508.413055,359.737183 507.511841,358.991669 506.680328,358.177094 
	C505.530945,357.051086 504.765137,355.697174 505.854065,354.194763 
	C506.869751,352.793457 508.419312,352.620392 509.888519,353.397003 
	C511.196106,354.088226 512.437988,354.953827 513.582336,355.896210 
	C524.897705,365.214447 536.164001,374.592438 547.493408,383.893494 
	C552.623047,388.104736 556.609924,388.421234 561.066467,385.208832 
	C565.864075,381.750641 566.710388,375.921356 562.317688,371.960724 
	C554.778564,365.163177 546.846619,358.798645 539.025818,352.317261 
	C534.794067,348.810242 530.437195,345.454681 526.164429,341.996613 
	C524.208313,340.413422 521.718628,338.646820 524.033203,335.912811 
	C526.131958,333.433807 528.240234,335.415192 530.062683,336.892548 
	C541.839417,346.439240 553.592529,356.015137 565.383545,365.544067 
	C567.975586,367.638763 570.694275,369.565552 573.872253,370.735443 
	C578.422668,372.410675 583.186523,371.064087 585.797241,367.266571 
	C588.655090,363.109528 587.501465,359.275757 584.456665,355.909485 
	C579.072571,349.956909 572.528748,345.278717 566.472412,340.068665 
	C549.552185,325.512848 532.612183,310.978882 515.562805,296.575012 
	C507.950623,290.144012 502.883759,290.626343 496.150177,297.793640 
	C490.105865,304.227264 484.037506,310.638367 477.962891,317.043365 
	C472.825134,322.460510 466.381378,323.482697 459.551453,321.792786 
	C448.893951,319.155853 445.408813,309.352753 451.966736,300.567657 
	C461.547699,287.732941 472.176575,275.793182 483.485046,264.447052 
	C487.227600,260.692078 490.700775,256.668640 494.800507,252.221893 
	C486.212433,249.115997 478.629578,250.407318 471.253632,253.719467 
	C458.647064,259.380402 446.115936,265.209259 433.540466,270.939758 
	C432.340118,271.486755 431.079071,271.979980 429.793976,272.239899 
	C428.418396,272.518066 427.134888,272.195709 426.497314,270.679321 
	C425.877930,269.206116 426.402588,268.003082 427.550873,267.163208 
	C428.613098,266.386322 429.828064,265.782440 431.041840,265.254120 
	C443.871368,259.669830 456.634766,253.951462 469.221008,247.824661 
	C478.139099,243.483505 487.557190,243.495102 497.007416,245.927216 
	C499.323303,246.523224 501.400665,246.950729 503.756592,245.873489 
	C514.879456,240.787537 525.716064,241.639755 536.256348,247.711472 
	C545.492432,253.031876 554.768738,258.282410 564.390503,263.695496 
M424.301544,367.949219 
	C421.624878,371.396149 420.976166,375.109100 424.416199,378.176422 
	C427.743805,381.143524 431.767944,380.433258 434.885101,377.728180 
	C439.632324,373.608612 444.175049,369.206573 448.424530,364.575714 
	C451.597748,361.117737 450.833252,357.617798 446.987427,354.925476 
	C443.214539,352.284180 439.642456,353.224548 436.555939,355.983856 
	C432.482697,359.625305 428.676117,363.565002 424.301544,367.949219 
M466.430939,373.387054 
	C463.835999,366.524750 459.071167,364.980591 453.474030,369.256226 
	C448.716431,372.890564 444.622955,377.247437 440.474030,381.530609 
	C437.751892,384.340881 437.637512,387.446594 440.077820,390.480530 
	C442.722076,393.768036 446.198242,394.983612 449.654266,392.235382 
	C456.124207,387.090485 462.420746,381.671417 466.430939,373.387054 
M409.846558,350.420563 
	C408.361786,352.263428 407.218781,354.300323 406.826782,356.643829 
	C406.238281,360.161804 407.780701,362.789307 410.622284,364.698822 
	C413.124054,366.380005 415.837433,366.360199 418.024445,364.402557 
	C422.233704,360.634766 426.438690,356.806244 430.182526,352.591705 
	C433.373474,348.999512 432.303162,345.052734 428.179962,342.575348 
	C424.096069,340.121643 420.462677,341.447357 417.109833,343.997833 
	C414.733032,345.805847 412.592865,347.924988 409.846558,350.420563 
M456.654053,397.645233 
	C458.462128,402.957306 461.236786,405.103790 465.653259,403.668152 
	C471.794495,401.671844 476.031097,397.174347 478.447144,391.300049 
	C479.772369,388.078033 478.391663,385.021851 475.507263,383.045593 
	C472.913483,381.268494 470.349457,382.181061 468.242523,384.068512 
	C463.939484,387.923340 459.357361,391.561920 456.654053,397.645233 
z"/>
<path fill="#000000" opacity="1.000000" stroke="none" 
	d="
M524.671021,67.701599 
	C518.314453,73.085876 512.156006,78.158340 506.199677,83.457924 
	C503.026611,86.281151 500.233856,86.864746 497.415527,83.238113 
	C494.652466,79.682663 492.292847,80.383057 489.312164,83.301964 
	C484.093597,88.412392 478.488159,93.128548 473.028137,97.991158 
	C471.646088,99.221977 470.079865,100.746498 468.393646,98.679169 
	C466.979980,96.945961 467.812042,95.222366 469.345154,93.875923 
	C476.464386,87.623360 483.616913,81.408470 490.710449,75.126984 
	C492.894073,73.193314 494.873627,73.463303 496.886047,75.285309 
	C498.465637,76.715462 500.044006,78.146965 501.887024,79.817215 
	C512.002014,71.243797 521.846252,62.899841 532.056946,54.245327 
	C530.007751,52.921276 528.189514,53.486813 526.528992,53.330074 
	C524.856384,53.172195 523.548340,52.623363 523.466858,50.752899 
	C523.394348,49.086319 524.672852,48.348053 526.024353,48.205540 
	C530.654785,47.717255 535.301514,47.576828 539.914429,48.447861 
	C541.105164,48.672710 542.373535,49.176773 542.390015,50.525505 
	C542.442627,54.826725 542.358887,59.132595 542.192505,63.431435 
	C542.150146,64.526672 541.163086,65.078217 540.074219,65.187141 
	C538.792297,65.315392 537.674500,64.922668 537.292786,63.621315 
	C536.878418,62.208229 536.707397,60.723785 536.342163,58.809090 
	C531.603699,60.748558 528.688721,64.685226 524.671021,67.701599 
z"/>
<path fill="#000000" opacity="1.000000" stroke="none" 
	d="
M536.661011,110.965630 
	C536.662964,101.181221 536.630798,91.891289 536.697571,82.602074 
	C536.710938,80.740784 536.121216,78.193001 539.070496,77.971420 
	C542.182007,77.737656 542.325195,80.189644 542.361816,82.409836 
	C542.550049,93.839211 542.706360,105.269157 542.843018,116.699272 
	C542.854858,117.685799 542.683594,118.681595 542.525757,119.661545 
	C542.238281,121.445618 541.429626,122.984184 539.424316,122.919167 
	C537.371826,122.852600 536.739014,121.263275 536.716858,119.422089 
	C536.684937,116.768341 536.678772,114.114281 536.661011,110.965630 
z"/>
<path fill="#000000" opacity="1.000000" stroke="none" 
	d="
M520.403198,98.897827 
	C520.526550,105.507507 520.755920,111.663467 520.710388,117.817398 
	C520.695557,119.822937 520.994141,122.777557 517.967346,122.851418 
	C514.713196,122.930847 514.763062,120.069328 514.750488,117.715424 
	C514.711548,110.390572 514.690063,103.065063 514.751099,95.740562 
	C514.769653,93.508331 514.238098,90.456383 517.730164,90.553612 
	C521.310059,90.653290 520.153198,93.817566 520.390930,95.947823 
	C520.482666,96.769844 520.403625,97.610916 520.403198,98.897827 
z"/>
<path fill="#000000" opacity="1.000000" stroke="none" 
	d="
M493.611053,112.982071 
	C493.596588,108.520874 493.591370,104.547104 493.564758,100.573479 
	C493.552612,98.759827 493.921661,97.092972 496.108551,97.074333 
	C498.050690,97.057785 499.198853,98.400154 499.227539,100.263138 
	C499.329498,106.883690 499.310730,113.506432 499.295288,120.128235 
	C499.291351,121.815857 498.545441,123.048775 496.679199,123.085854 
	C494.594849,123.127274 493.734161,121.821938 493.668854,119.925705 
	C493.594788,117.775551 493.626129,115.621765 493.611053,112.982071 
z"/>
<path fill="#000000" opacity="1.000000" stroke="none" 
	d="
M476.289978,122.829247 
	C474.654053,123.260300 473.281067,122.964294 473.081024,121.703873 
	C472.326874,116.951637 472.424744,112.148849 473.016815,107.380417 
	C473.151855,106.292885 474.201965,105.836700 475.317871,106.050255 
	C476.631500,106.301659 477.467407,107.289268 477.424347,108.484734 
	C477.254456,113.207344 478.291443,118.003853 476.289978,122.829247 
z"/>
<path fill="#000000" opacity="1.000000" stroke="none" 
	d="
M701.753662,169.496979 
	C699.976746,168.571655 698.595276,168.213577 697.705750,170.129135 
	C697.496094,170.580551 697.248596,171.040100 697.166443,171.521179 
	C695.342712,182.201141 687.318848,186.048355 678.252319,188.857819 
	C675.402649,189.740875 672.696655,191.077332 669.888489,192.107162 
	C666.557983,193.328583 664.018616,192.380859 662.462585,189.113388 
	C660.877625,185.784958 662.349854,183.701645 665.316223,182.298630 
	C669.979614,180.092941 674.655823,177.913986 679.342102,175.757278 
	C681.359253,174.828949 683.053528,173.792587 683.657959,171.336929 
	C686.919373,158.086838 690.590393,144.973526 698.146057,133.265091 
	C690.998657,131.204941 687.398926,133.092728 685.520447,139.518646 
	C684.727844,142.229965 684.029236,144.979126 683.048096,147.622040 
	C682.102234,150.169998 680.078735,151.164688 677.431641,150.419739 
	C674.879944,149.701630 674.178162,147.786453 674.566650,145.351013 
	C675.436279,139.899170 677.211670,134.693893 679.327393,129.641327 
	C680.585388,126.637115 683.570435,125.509468 686.595215,124.943054 
	C692.474121,123.842194 698.343201,122.518745 704.279968,121.944939 
	C710.207092,121.372070 715.760010,123.945412 717.886108,129.264435 
	C721.654602,138.692276 726.851135,143.575623 737.498779,140.431656 
	C740.169983,139.642944 743.017822,140.949295 743.140442,144.457687 
	C743.251160,147.628418 740.932983,148.612198 738.179932,148.889587 
	C734.044678,149.306244 729.863892,149.496613 725.791748,150.259659 
	C720.150208,151.316757 717.358521,147.632858 714.483032,143.420334 
	C711.537048,147.030548 710.393250,150.864868 708.795776,154.452209 
	C707.890625,156.484756 709.146851,157.589386 710.687256,158.457199 
	C713.588379,160.091553 716.600769,161.540543 719.428589,163.290146 
	C724.174805,166.226746 725.246399,169.584564 723.254822,174.740891 
	C720.737122,181.259583 718.191223,187.767731 715.606628,194.260162 
	C714.343079,197.434235 712.505127,200.106491 708.533569,198.590225 
	C704.717896,197.133453 703.955017,194.056610 705.183716,190.391586 
	C706.452576,186.607086 707.470886,182.689041 709.202148,179.122253 
	C711.151550,175.105957 710.073730,172.963547 706.109375,171.611084 
	C704.703186,171.131348 703.411560,170.315781 701.753662,169.496979 
z"/>
<path fill="#000000" opacity="1.000000" stroke="none" 
	d="
M714.310974,121.834290 
	C708.968872,117.047310 708.024231,111.152138 711.596680,106.687828 
	C715.069336,102.348129 721.286255,101.404793 725.951477,104.509644 
	C730.725220,107.686714 732.092041,113.323662 729.355286,118.547333 
	C726.741150,123.536972 721.120789,124.872429 714.310974,121.834290 
z"/>
<path fill="#000000" opacity="1.000000" stroke="none" 
	d="
M802.053223,364.252869 
	C780.242554,377.446472 756.031372,361.240784 753.046875,340.791992 
	C750.720032,324.848999 760.564148,309.825043 777.255676,304.833435 
	C779.530090,304.153229 781.862122,303.907898 781.823608,300.638489 
	C781.791809,297.940674 781.276001,296.106995 777.999268,296.180298 
	C775.707092,296.231598 772.801392,296.317230 772.881287,292.970154 
	C772.968506,289.321991 776.069702,289.787079 778.508362,289.756470 
	C783.169250,289.697968 787.832825,289.680756 792.492615,289.776337 
	C794.714417,289.821899 797.109558,290.169739 797.111023,293.121796 
	C797.112427,295.906677 794.732544,295.936371 792.762451,296.124115 
	C790.590698,296.331055 788.398499,296.093414 788.240845,299.361450 
	C788.084412,302.603943 789.296997,304.018341 792.502075,304.857513 
	C805.621460,308.292511 814.767151,316.160522 817.361389,329.875305 
	C820.121582,344.467957 814.698914,355.886261 802.053223,364.252869 
M811.528015,331.226532 
	C810.415955,325.221619 807.129944,320.563873 802.606201,316.625549 
	C793.272766,308.500092 779.381897,308.001526 769.380798,315.484711 
	C759.483765,322.890076 756.253967,335.921692 761.518616,347.207397 
	C766.791077,358.509857 779.408020,364.839752 791.235168,362.116150 
	C804.810486,358.989960 812.118530,348.222534 811.528015,331.226532 
z"/>
<path fill="#000000" opacity="1.000000" stroke="none" 
	d="
M339.852173,500.149658 
	C350.788818,511.122620 350.798645,511.129272 342.163635,523.912720 
	C338.434814,529.432983 334.761414,534.995422 330.869232,540.399292 
	C327.160461,545.548462 323.798523,545.799255 319.400818,541.344116 
	C314.134399,536.008911 308.979370,530.562561 303.836639,525.107300 
	C302.527527,523.718567 301.507935,522.257996 299.317596,523.805664 
	C286.834167,532.626099 274.849121,524.090881 267.994843,514.981567 
	C265.496796,511.661682 263.341797,508.097412 262.186310,504.002502 
	C260.083618,496.550812 260.851654,489.904816 266.814789,484.298767 
	C271.303986,480.078369 275.443848,475.487122 279.919189,471.251129 
	C291.036316,460.728668 303.060730,460.964600 313.735321,472.083191 
	C322.502930,481.215515 330.994110,490.613251 339.852173,500.149658 
M321.720123,489.800629 
	C320.093048,488.466034 319.204681,486.238617 316.718719,485.672150 
	C313.457397,487.744080 311.562958,491.180420 309.052094,493.981110 
	C302.029480,501.814392 302.132843,501.904419 309.375519,509.822296 
	C310.722015,511.294220 312.032837,512.799072 313.391968,514.259094 
	C318.657379,519.915344 323.935669,525.559692 329.483002,531.501770 
	C334.078857,524.752930 338.334259,518.504089 342.601379,512.237976 
	C335.541779,504.653168 328.869873,497.484833 321.720123,489.800629 
M268.641846,502.789429 
	C270.792786,509.161804 275.003326,514.050171 280.105194,518.176941 
	C285.532288,522.566772 291.167603,522.545227 296.331787,517.860596 
	C300.046204,514.491150 303.215759,514.746216 306.034943,518.472473 
	C311.243378,525.356567 318.531891,530.132263 324.100128,536.734009 
	C324.061493,535.862610 323.832977,535.081726 323.339844,534.543213 
	C310.769257,520.815674 298.395935,506.899750 285.050781,493.904633 
	C282.773895,491.687469 280.061249,490.060394 276.928741,489.222931 
	C272.083374,487.927490 268.308624,490.288483 267.453430,495.213684 
	C267.041656,497.584991 267.624146,499.831360 268.641846,502.789429 
M298.021942,469.750122 
	C288.822144,469.615753 283.664764,476.086365 277.081512,482.317352 
	C286.080200,484.840546 291.417999,491.380005 297.938141,496.907532 
	C302.292816,491.935944 306.284973,487.310944 310.360596,482.760651 
	C311.845886,481.102325 311.992188,479.583588 310.436340,477.969116 
	C307.091583,474.498138 303.830780,470.899872 298.021942,469.750122 
z"/>
<path fill="#000000" opacity="1.000000" stroke="none" 
	d="
M485.012451,602.313232 
	C466.609650,602.680786 467.749969,602.131104 467.796173,585.744507 
	C467.837006,571.260193 467.813049,556.775818 467.826447,542.291443 
	C467.835022,533.010986 469.123322,531.756409 478.577850,531.764221 
	C482.573517,531.767517 486.583557,531.563110 490.560822,531.835938 
	C494.482666,532.104980 495.796478,530.679260 495.768738,526.722839 
	C495.717285,519.394470 499.146027,515.769897 505.587799,515.512634 
	C512.324463,515.243469 516.487183,518.868103 516.254395,525.650818 
	C516.089966,530.440674 517.569397,532.219482 522.437622,531.860291 
	C527.570923,531.481567 532.753723,531.796997 537.914551,531.760986 
	C542.208740,531.731018 544.372742,533.710266 544.387878,538.107300 
	C544.452026,556.739441 544.667786,575.371582 544.627136,594.003296 
	C544.611694,601.096130 543.130249,602.299316 535.955200,602.306580 
	C519.139954,602.323608 502.324738,602.312378 485.012451,602.313232 
M522.493896,596.682190 
	C526.157227,596.683105 529.832031,596.502991 533.480713,596.734558 
	C537.349548,596.980103 538.766541,595.559998 538.727417,591.590759 
	C538.564941,575.107483 538.555786,558.620422 538.745911,542.137695 
	C538.791199,538.212036 537.192078,537.264893 533.709595,537.406982 
	C526.893005,537.684998 520.066895,537.882324 513.245667,537.857239 
	C501.594696,537.814453 489.943604,537.616089 478.294464,537.388306 
	C475.349670,537.330688 473.786285,537.811218 473.839874,541.469238 
	C474.078888,557.784302 474.175507,574.107422 473.902405,590.420593 
	C473.815521,595.609680 475.605560,596.900452 480.536316,596.789795 
	C494.183594,596.483337 507.842255,596.681702 522.493896,596.682190 
M505.630310,531.920898 
	C507.360382,531.791199 509.758514,532.630859 510.318329,530.291443 
	C511.045776,527.251648 511.502319,523.929810 507.782104,522.096802 
	C505.807495,521.123901 503.290527,520.762512 502.693512,523.035767 
	C501.908295,526.025452 499.996552,529.935852 505.630310,531.920898 
z"/>
<path fill="#000000" opacity="1.000000" stroke="none" 
	d="
M721.432373,462.210693 
	C740.855591,465.525085 747.951294,477.843384 743.912170,498.331238 
	C738.889526,523.807983 711.794250,544.778198 689.131592,548.316589 
	C685.356384,548.906006 681.591431,549.621826 677.740723,548.913269 
	C663.883179,546.363342 656.763916,537.285339 656.877014,522.278381 
	C657.107056,491.766571 689.019348,461.025452 719.522583,461.938477 
	C720.019348,461.953339 720.513611,462.050781 721.432373,462.210693 
M716.061218,529.556702 
	C721.882507,525.249390 726.542908,519.868225 730.660706,513.955811 
	C732.025757,511.995819 732.397827,510.292511 731.150879,508.017426 
	C723.496155,494.050934 712.524536,483.464478 698.736816,475.666229 
	C696.667908,474.496094 694.809387,474.500488 692.687073,475.796844 
	C682.653503,481.925507 674.817505,490.081299 669.184631,500.410767 
	C667.847839,502.862152 668.528748,504.721558 669.888428,506.848999 
	C675.699890,515.941895 682.917480,523.754333 691.730652,529.898743 
	C704.411316,538.739502 700.690857,540.045044 716.061218,529.556702 
M714.137756,478.328857 
	C723.054871,484.563507 729.260193,493.342712 735.663086,502.314880 
	C741.005859,491.233063 739.655212,478.573425 732.944031,473.016327 
	C726.180237,467.415649 711.645813,466.489044 704.763123,471.406006 
	C707.748596,473.595245 710.666504,475.734955 714.137756,478.328857 
M680.919128,529.605652 
	C675.121948,524.402649 669.981628,518.601685 665.597290,511.860504 
	C660.461121,520.453674 663.157959,534.126831 669.086487,539.024109 
	C674.760193,543.711060 687.954224,544.339050 693.899719,539.965393 
	C689.719727,536.648560 685.582031,533.365295 680.919128,529.605652 
z"/>
<path fill="#000000" opacity="1.000000" stroke="none" 
	d="
M338.509918,184.535950 
	C319.454987,201.539673 292.386810,199.680115 274.913910,180.419174 
	C258.966370,162.839676 260.978119,133.437134 279.243042,117.147072 
	C296.655609,101.617210 325.967377,103.078300 341.620697,120.256371 
	C358.616089,138.907272 357.345398,167.517532 338.509918,184.535950 
M337.125366,139.389603 
	C339.833282,127.068588 339.132629,125.217567 329.445984,119.102051 
	C324.748718,116.136505 316.922180,117.260445 313.260925,121.375862 
	C312.527100,122.200714 312.370605,123.128952 312.343628,124.133003 
	C312.158508,131.018417 310.790558,138.343079 319.418854,141.762482 
	C320.574921,142.220657 321.406525,143.502487 322.382263,144.409470 
	C323.301422,145.263855 324.320190,145.700119 325.566284,145.184341 
	C329.362427,143.613007 333.650421,143.121460 337.125366,139.389603 
M280.188965,125.997749 
	C278.296021,129.406326 279.790253,132.779022 280.338593,136.144028 
	C281.021393,140.334320 291.834564,146.366302 295.323792,144.031418 
	C300.880493,140.313049 307.930176,137.171265 305.788055,128.148239 
	C305.452148,126.733345 305.711792,125.175980 305.704681,123.684448 
	C305.697754,122.230278 304.968842,121.276329 303.819733,120.407944 
	C296.958954,115.223213 292.603302,115.263306 285.848083,120.778336 
	C284.052856,122.243950 282.389099,123.870575 280.188965,125.997749 
M295.170898,157.236588 
	C294.760651,152.955124 292.583191,150.265533 288.300934,149.230881 
	C286.541687,148.805817 284.893799,147.926132 283.187897,147.272476 
	C278.631714,145.526642 270.856201,150.970154 271.530334,155.822556 
	C272.304840,161.397827 273.669708,166.928421 277.410461,171.479660 
	C279.825958,174.418533 286.867188,175.876175 289.751770,174.003647 
	C294.317596,171.039749 296.992493,163.467148 295.170898,157.236588 
M307.527740,166.910995 
	C302.654419,167.155579 295.640839,173.133591 295.389404,178.011856 
	C295.183289,182.010513 296.313568,186.788651 300.157043,188.162079 
	C305.174591,189.955063 310.823364,190.706238 316.279053,188.902603 
	C320.070618,187.649109 324.955872,180.736816 324.095764,177.915466 
	C321.990570,171.010025 315.647369,166.565063 307.527740,166.910995 
M342.793152,167.260849 
	C344.554199,164.012985 345.465637,160.468307 346.363342,156.924652 
	C346.830597,155.080002 346.940979,153.056198 345.348297,151.823441 
	C343.194122,150.156052 341.799957,146.355042 338.764557,147.176758 
	C334.045288,148.454361 328.590515,149.053528 325.156281,152.764618 
	C321.455505,156.763748 321.990326,163.900986 325.240570,168.478134 
	C326.298950,169.968628 327.341431,171.470428 328.404572,172.957504 
	C329.361115,174.295486 330.638153,174.881882 332.293243,174.594360 
	C336.646667,173.838058 340.875702,172.900116 342.793152,167.260849 
z"/>
<path fill="#000000" opacity="1.000000" stroke="none" 
	d="
M274.226501,342.948517 
	C274.337494,347.780365 274.422546,352.187561 272.738922,356.243317 
	C269.264374,364.613342 262.723083,369.069702 253.751190,369.213867 
	C238.606491,369.457214 223.453369,369.426910 208.307114,369.240082 
	C196.617706,369.095917 188.488998,361.050690 188.053711,348.965393 
	C187.676483,338.491699 187.778000,327.989410 188.025009,317.508179 
	C188.229507,308.831177 191.779785,305.698578 200.490936,305.668823 
	C201.822662,305.664276 203.171356,305.530945 204.483109,305.692871 
	C208.982574,306.248291 211.947281,305.537903 212.327713,299.874542 
	C212.678009,294.659515 216.683777,292.098907 221.674881,291.895660 
	C227.987396,291.638580 234.331421,291.640259 240.640274,291.958344 
	C246.508102,292.254181 249.908508,295.532898 250.218262,301.422516 
	C250.414871,305.161011 252.070267,305.883240 255.230728,305.698914 
	C258.051025,305.534393 260.888947,305.638214 263.718506,305.672455 
	C270.825165,305.758423 274.146759,308.868988 274.254120,315.990295 
	C274.387054,324.810608 274.248901,333.635010 274.226501,342.948517 
M211.275696,335.333893 
	C207.614975,335.343140 203.954269,335.354248 200.293549,335.361206 
	C193.600555,335.373871 193.619858,335.372009 193.898529,342.255157 
	C193.965683,343.914246 193.872986,345.580719 193.829254,347.243195 
	C193.582413,356.627899 199.554749,363.432251 208.808472,363.568939 
	C223.614304,363.787659 238.427368,363.739044 253.234329,363.556641 
	C259.797028,363.475800 264.440857,360.210632 267.156250,354.024933 
	C269.494232,348.698975 268.466187,343.223083 268.524261,337.791382 
	C268.548187,335.550659 266.726257,335.298431 264.951416,335.298920 
	C258.961243,335.300507 252.971039,335.297577 246.980911,335.315582 
	C245.451691,335.320160 243.581192,335.366150 243.529663,337.318420 
	C243.392334,342.521118 239.893585,342.439209 236.226822,342.396057 
	C231.734772,342.343201 227.241394,342.344147 222.749222,342.387299 
	C220.495667,342.408966 218.544617,341.670227 218.276093,339.341614 
	C217.814087,335.335327 215.210831,335.158173 211.275696,335.333893 
M262.243042,329.682922 
	C267.366486,330.520721 269.266205,328.215973 268.661774,323.257507 
	C268.462097,321.619568 268.685944,319.934296 268.636322,318.273010 
	C268.474243,312.846344 267.188751,311.561432 261.814911,311.522919 
	C241.872711,311.379974 221.934570,312.510345 201.984512,311.509125 
	C195.034515,311.160339 194.044342,312.490112 194.009003,319.641296 
	C193.999130,321.636505 194.092453,323.634399 194.018539,325.626617 
	C193.907883,328.609100 195.267426,329.769897 198.234100,329.696503 
	C203.552094,329.564880 208.875732,329.664703 214.197021,329.663025 
	C215.734161,329.662537 217.417709,329.625885 217.863495,327.807129 
	C218.865448,323.719482 221.854401,323.538422 225.216248,323.627472 
	C229.703110,323.746429 234.195190,323.675201 238.685028,323.671234 
	C240.419586,323.669678 242.662827,323.878235 242.850098,325.633606 
	C243.372482,330.530182 246.773331,329.655914 249.830551,329.676697 
	C253.655075,329.702667 257.479919,329.682831 262.243042,329.682922 
M232.451172,305.660767 
	C234.939331,305.657593 237.427643,305.635742 239.915604,305.657043 
	C241.945755,305.674438 243.539398,305.348694 243.454620,302.709015 
	C243.383469,300.492615 242.884827,298.483337 240.370789,298.412811 
	C234.077591,298.236298 227.772141,298.202637 221.480820,298.402191 
	C219.047607,298.479340 218.418839,300.532379 218.398911,302.752228 
	C218.375778,305.325256 219.980316,305.688141 222.019135,305.666473 
	C225.170456,305.632996 228.322403,305.659424 232.451172,305.660767 
M232.405029,335.946808 
	C234.618286,335.896118 237.003799,335.984131 236.780899,332.730560 
	C236.581100,329.814026 234.233871,330.209717 232.308899,330.063019 
	C231.319458,329.987579 230.322998,330.001373 229.329575,329.981384 
	C223.894791,329.871979 223.514313,330.411957 225.139267,335.957092 
	C227.269135,335.957092 229.406830,335.957092 232.405029,335.946808 
z"/>
<path fill="#000000" opacity="1.000000" stroke="none" 
	d="
M776.975098,339.469543 
	C776.422363,336.505096 776.443237,333.625793 778.636047,332.197723 
	C782.900635,329.420288 782.787537,325.480408 782.700928,321.277435 
	C782.658752,319.232849 782.130737,316.391296 785.397522,316.468842 
	C788.334656,316.538605 788.357849,319.100708 788.308838,321.322296 
	C788.220764,325.316193 788.187744,328.956268 792.054810,331.897247 
	C794.814880,333.996338 795.039795,337.657898 793.457520,341.049347 
	C792.005371,344.161804 789.686707,346.122589 786.187744,346.247711 
	C781.607300,346.411407 778.776978,343.905365 776.975098,339.469543 
z"/>
<path fill="#000000" opacity="1.000000" stroke="none" 
	d="
M525.516113,581.113953 
	C527.359680,589.185364 526.446960,590.387268 518.852661,590.399292 
	C509.066437,590.414795 499.279785,590.456238 489.494080,590.382019 
	C484.318390,590.342773 482.831665,587.901306 484.751770,583.001831 
	C485.627441,580.767395 487.135345,579.013733 488.938080,577.528320 
	C498.180359,569.913147 517.653931,571.661316 525.516113,581.113953 
z"/>
<path fill="#000000" opacity="1.000000" stroke="none" 
	d="
M494.751404,562.793335 
	C492.561920,554.787842 495.463409,548.925171 502.528290,546.493530 
	C508.551514,544.420471 514.801147,547.284607 517.290222,553.258850 
	C519.857544,559.420654 517.239990,566.319580 511.198608,569.314209 
	C505.147186,572.313904 498.984314,570.000977 494.751404,562.793335 
z"/>
<path fill="#000000" opacity="1.000000" stroke="none" 
	d="
M687.562988,519.624207 
	C683.598999,519.255005 682.749939,517.322876 685.163330,514.748718 
	C692.881226,506.516876 700.789185,498.462982 708.639343,490.355499 
	C709.911499,489.041687 711.316223,488.347015 712.954651,489.861969 
	C715.015076,491.767059 713.952759,493.605682 712.556885,495.068451 
	C707.514160,500.352814 702.445496,505.622742 697.164795,510.665802 
	C694.077759,513.613892 692.216614,517.853638 687.562988,519.624207 
z"/>
</svg>