<?xml version="1.0" encoding="UTF-8"?>
<svg id="Livello_1" xmlns="http://www.w3.org/2000/svg" version="1.1" viewBox="0 0 1920 1080">
  <!-- Generator: Adobe Illustrator 30.0.0, SVG Export Plug-In . SVG Version: 2.1.1 Build 123)  -->
  <g>
    <g>
      <path d="M-1188.9,585.6h24.9c0,7,7.4,12.7,16.6,12.7s15.2-4.4,15.2-10.5c0-16.9-54.9-9.5-54.9-46.2s17.1-33.5,38.8-33.5,39.4,14.1,39.4,32.9h-24.9c0-6.4-6.4-11.3-14.7-11.3s-13.8,3.8-13.8,9.9c0,17.1,54.9,7.8,54.9,45.4s-17.7,34.9-40.4,34.9-41.2-15-41.2-34.3Z"/>
      <path d="M-1093.7,510h49.9c21.6,0,37.9,15.8,37.9,36.8s-16.3,36.8-37.9,36.8h-25.7v34.4h-24.3v-108ZM-1069.5,532.9v27.9h25.2c7.7,0,13.5-6.1,13.5-13.9s-5.8-13.9-13.5-13.9h-25.2Z"/>
      <path d="M-994.3,510h48.7c21.4,0,37.6,15.5,37.6,36.2s-8.9,27.2-22.4,32.4l25.7,39.4h-30.1l-22.7-36.9h-12.5v36.9h-24.3v-108ZM-970.1,532.9v27.1h23.9c7.5,0,13.1-5.8,13.1-13.5s-5.6-13.6-13.1-13.6h-23.9Z"/>
      <path d="M-894.3,510h24.3v108h-24.3v-108Z"/>
      <path d="M-851,510h24.4l44.9,66.1v-66.1h24.3v108h-24.6l-44.8-66.1v66.1h-24.3v-108Z"/>
      <path d="M-716.5,532.9h-28.3v-22.8h80.9v22.8h-28.3v85.1h-24.3v-85.1Z"/>
      <path d="M-632.3,510h28.6l40.7,108h-26.6l-6.6-18.9h-44l-6.7,18.9h-26l40.5-108ZM-604.1,576.7l-14.1-39.9-14.1,39.9h28.2Z"/>
    </g>
    <g>
      <path d="M-1388.7,618.1c5.1-1.4,9.9-3.3,14.3-5.7-18.2-.6-34.6-13.5-38.6-32.5-4.4-21.4,9.7-42.3,30.8-48l36.6-9.8,52.4-14c1.1-.3,2-1.2,2.2-2.4l10.4-52.6c.4-2.3-1.6-4.2-3.8-3.6l-139.5,37.4c-31.7,8.5-52.2,38.1-50.2,69.7.2,4.5,1,9,2.2,13.5,9.7,36.2,46.9,57.7,83.2,48Z"/>
      <path d="M-1324.1,544.5c-5.1,1.4-9.9,3.3-14.4,5.7,18.2.6,34.5,13.4,38.5,32.4,4.5,21.4-9.6,42.4-30.7,48.1l-36.7,9.8-51.9,13.9c-1.1.3-2,1.2-2.2,2.4l-10.8,52.7c-.5,2.3,1.6,4.2,3.8,3.6l139.5-37.4c31.7-8.5,52.2-38.1,50.2-69.7-.3-4.4-1-9-2.2-13.5-9.7-36.2-46.9-57.7-83.2-48Z"/>
      <circle cx="-1401.4" cy="413.4" r="40.4"/>
    </g>
  </g>
  <g>
    <path d="M927.7,615c5.1-1.4,9.9-3.3,14.3-5.7-18.2-.6-34.6-13.5-38.6-32.5-4.4-21.4,9.7-42.3,30.8-48l36.6-9.8,52.4-14c1.1-.3,2-1.2,2.2-2.4l10.4-52.6c.4-2.3-1.6-4.2-3.8-3.6l-139.5,37.4c-31.7,8.5-52.2,38.1-50.2,69.7.2,4.5,1,9,2.2,13.5,9.7,36.2,46.9,57.7,83.2,48Z"/>
    <path d="M992.3,541.4c-5.1,1.4-9.9,3.3-14.4,5.7,18.2.6,34.5,13.4,38.5,32.4,4.5,21.4-9.6,42.4-30.7,48.1l-36.7,9.8-51.9,13.9c-1.1.3-2,1.2-2.2,2.4l-10.8,52.7c-.5,2.3,1.6,4.2,3.8,3.6l139.5-37.4c31.7-8.5,52.2-38.1,50.2-69.7-.3-4.4-1-9-2.2-13.5-9.7-36.2-46.9-57.7-83.2-48Z"/>
    <circle cx="915" cy="410.3" r="40.4"/>
  </g>
</svg>