<svg version="1.1" id="Layer_1" xmlns="http://www.w3.org/2000/svg" xmlns:xlink="http://www.w3.org/1999/xlink" x="0px" y="0px"
	 width="100%" viewBox="0 0 800 720" enable-background="new 0 0 800 720" xml:space="preserve">
<path fill="#000000" opacity="1.000000" stroke="none" 
	d="
M31.693390,329.788910 
	C43.345867,311.048859 59.670078,299.757782 81.127457,296.133087 
	C84.057686,295.638123 87.135132,295.409393 90.075562,295.716522 
	C94.943764,296.224976 97.279289,294.323120 98.531830,289.608826 
	C103.901985,269.396576 111.759987,250.071136 122.221817,232.039948 
	C126.802391,224.145233 126.801666,219.372513 121.173317,211.511826 
	C90.291733,168.381927 114.428398,108.223152 166.411087,98.136040 
	C191.228073,93.320358 213.179901,100.339813 231.608170,117.793785 
	C233.647736,119.725510 235.121704,121.226051 238.378296,119.465538 
	C259.572205,108.008026 282.074371,99.847847 305.370575,93.887573 
	C309.493469,92.832741 311.291718,91.216736 311.788513,86.671295 
	C315.025818,57.049778 341.356415,29.683905 370.984192,24.660883 
	C414.938293,17.209007 453.099487,44.465023 460.183807,88.548035 
	C460.656738,91.490868 461.525665,92.970032 464.435791,93.630287 
	C488.943512,99.190697 512.028198,108.590935 534.279480,120.082840 
	C537.669006,121.833397 539.429138,121.254974 541.901917,118.692444 
	C556.719360,103.337433 575.085632,95.838387 596.238281,96.811691 
	C632.647034,98.486984 658.445068,124.237892 664.343750,155.793427 
	C668.797974,179.621628 662.562988,200.584702 646.315979,218.510193 
	C644.246765,220.793228 644.134705,222.572479 645.617126,225.104599 
	C657.949097,246.169388 667.885986,268.282135 674.341309,291.873505 
	C675.158142,294.858551 676.857300,295.724121 679.780945,295.680267 
	C714.023865,295.166626 745.108887,320.278473 749.988159,358.768005 
	C755.208801,399.949951 728.611145,434.196503 688.616760,440.200684 
	C688.123962,440.274628 687.621216,440.285492 687.122620,440.317810 
	C675.693665,441.059113 675.707153,441.062988 672.337463,452.214142 
	C665.815247,473.798340 657.509949,494.651062 646.014709,514.092224 
	C643.763184,517.900269 645.976501,519.475098 647.911682,521.674316 
	C673.217834,550.434143 671.792297,593.296753 644.638245,620.265320 
	C615.882202,648.824951 568.647766,648.287659 540.616333,618.891785 
	C537.895569,616.038574 536.082336,615.851257 532.686768,617.593079 
	C510.853790,628.792480 488.207184,637.936157 464.218658,643.455139 
	C460.794769,644.242920 459.053192,645.891357 458.086761,649.547791 
	C448.359009,686.352051 412.526642,709.498474 374.782806,703.481873 
	C342.870514,698.394897 322.883484,679.740601 313.726898,649.107300 
	C312.796631,645.995178 311.267242,644.292419 308.200928,643.580811 
	C283.904022,637.942200 260.915253,628.761719 238.711624,617.555664 
	C235.776123,616.074097 234.297455,616.993652 232.343201,618.996948 
	C217.068405,634.655212 198.329102,642.366394 176.586502,641.160400 
	C139.927292,639.127136 113.547035,612.440002 108.574806,580.250427 
	C105.040573,557.370178 111.519226,537.494751 126.582619,520.255432 
	C128.555099,517.997986 128.263657,516.437012 126.913345,514.138123 
	C113.935440,492.042847 104.379150,468.500061 97.795860,443.768250 
	C96.866318,440.276184 94.769119,440.337494 92.221313,440.386810 
	C62.199257,440.968048 32.821785,419.094849 24.132727,388.305786 
	C18.427984,368.091431 20.828524,348.462830 31.693390,329.788910 
M165.362473,375.824188 
	C161.793381,407.371399 139.486420,432.423798 108.625343,439.141205 
	C104.665367,440.003174 104.074059,441.438080 105.264198,444.892578 
	C107.430069,451.179474 109.204147,457.602448 111.411034,463.873840 
	C117.328812,480.690674 124.919563,496.721008 134.209488,512.147522 
	C135.083832,511.634033 135.679291,511.359650 136.190170,510.973480 
	C160.362778,492.698975 196.226288,491.737762 221.143494,510.092499 
	C224.120758,512.285706 225.543137,510.577332 227.359161,508.739716 
	C243.171173,492.739502 259.005615,476.761444 274.839355,460.782684 
	C276.832031,458.771729 278.899506,456.055939 281.909302,458.920288 
	C284.851837,461.720642 282.546417,464.051941 280.497986,466.107635 
	C269.559570,477.084900 258.574432,488.015656 247.644333,499.001129 
	C241.805161,504.869843 236.044266,510.816406 230.187134,516.789917 
	C255.814468,545.687683 258.103699,576.707703 240.293625,609.939575 
	C262.700592,621.736450 285.526093,631.234741 310.784698,636.690247 
	C310.535706,629.149780 311.094482,622.565308 312.307495,616.058594 
	C319.574646,577.076111 357.059998,548.812378 397.735535,555.616333 
	C417.353241,558.897888 433.487579,568.010010 445.561981,583.802734 
	C456.252655,597.785583 461.296936,613.695068 460.397491,631.394775 
	C460.256775,634.164001 459.608185,637.477417 464.614563,636.182739 
	C486.633881,630.488037 507.642456,622.229309 527.873840,611.879089 
	C531.572021,609.987122 531.905823,608.138123 529.965576,604.487366 
	C514.772339,575.899902 518.472839,544.615112 539.933411,520.048645 
	C542.363342,517.267090 542.386780,515.667847 539.792847,513.089233 
	C524.547119,497.933655 509.445038,482.633514 494.314453,467.362305 
	C493.151886,466.188934 491.879211,465.001923 491.129211,463.573700 
	C490.195374,461.795380 490.684509,459.982819 492.337585,458.672943 
	C493.932556,457.409119 495.464020,457.819397 496.852661,459.035278 
	C497.853424,459.911591 498.779327,460.875458 499.715332,461.823303 
	C514.702820,477.000336 529.730103,492.138550 544.632996,507.398224 
	C547.476807,510.310028 549.625977,510.988403 553.529053,508.575958 
	C580.630371,491.825073 607.692383,493.237885 634.490906,509.547668 
	C635.743835,510.310211 636.755066,511.570526 638.423462,511.507538 
	C639.534119,511.235413 639.949158,510.272614 640.424011,509.413269 
	C651.662170,489.074799 660.672729,467.835144 666.784973,445.368164 
	C667.922058,441.188599 666.892212,440.019958 662.793274,439.083008 
	C633.449341,432.375366 612.048035,409.193298 607.813782,379.964050 
	C606.716309,372.388000 606.716309,372.383179 598.951660,372.379669 
	C581.952820,372.371979 564.953918,372.375885 547.955078,372.354553 
	C546.461609,372.352692 544.942749,372.341217 543.481995,372.077698 
	C542.051208,371.819580 541.112976,370.734924 541.020813,369.289062 
	C540.914001,367.614075 541.841736,366.325470 543.455200,365.958588 
	C544.893188,365.631561 546.429260,365.663208 547.922180,365.661652 
	C565.754333,365.643036 583.587708,365.535126 601.417725,365.728363 
	C605.697327,365.774750 607.086487,364.176208 607.704468,360.087219 
	C612.293823,329.722534 628.858582,309.027344 658.019226,298.772888 
	C661.094543,297.691406 664.283752,296.933472 667.961365,295.868713 
	C661.247620,271.229340 651.512512,248.532135 638.069397,227.082993 
	C636.111389,228.280960 634.820557,229.011841 633.589600,229.832504 
	C606.221252,248.078125 571.678406,246.465942 546.335205,225.532227 
	C543.522827,223.209152 542.013123,223.680450 539.766541,225.996033 
	C531.875977,234.128937 523.825623,242.106750 515.838501,250.146057 
	C509.848450,256.175232 503.891235,262.237427 497.856903,268.221985 
	C496.073334,269.990875 493.950562,271.105408 491.789917,268.792511 
	C489.880829,266.748932 490.841370,264.801514 492.416901,263.047211 
	C493.083649,262.304810 493.843109,261.646423 494.547150,260.936646 
	C507.455353,247.922409 520.271301,234.814575 533.330688,221.953903 
	C536.657227,218.677994 537.042969,216.401489 534.243591,212.314774 
	C518.002869,188.605652 516.500366,163.559631 528.522400,137.597885 
	C529.972290,134.466919 531.684326,131.457367 533.242920,128.453003 
	C519.930481,118.797462 473.690063,101.225578 461.228790,100.971931 
	C456.631805,141.625580 435.587250,169.184769 393.982147,172.691299 
	C343.944458,176.908524 317.574249,148.606430 309.910980,100.292084 
	C285.323944,105.917358 262.391144,115.115707 240.288574,126.637886 
	C240.750916,128.080643 240.883911,128.738617 241.167374,129.323685 
	C241.601318,130.219330 242.110947,131.082138 242.636856,131.928818 
	C249.780472,143.429077 252.941986,156.216064 252.902023,169.481003 
	C252.855026,185.086136 248.663681,199.822983 239.036865,212.450089 
	C236.392609,215.918488 236.616287,217.992462 239.704544,220.733658 
	C243.311615,223.935410 246.556168,227.545105 249.964432,230.971420 
	C260.189514,241.250626 270.424713,251.519760 280.637634,261.811035 
	C282.288086,263.474152 284.354156,265.331390 282.584778,267.823456 
	C280.080139,271.351135 277.606232,269.772461 275.201019,267.311401 
	C265.067596,256.942657 254.876740,246.629974 244.697327,236.306259 
	C240.166473,231.711182 235.612961,227.138489 230.901047,222.385468 
	C217.077789,234.797943 201.347107,241.472763 183.176041,242.371185 
	C164.768463,243.281296 148.646469,237.150177 133.802902,226.130051 
	C120.462158,248.313812 110.641457,271.219452 104.231407,296.030182 
	C106.891411,296.710052 108.961128,297.245911 111.034332,297.767914 
	C141.111206,305.340973 162.206497,331.627075 165.181747,360.185822 
	C165.642731,364.610626 166.905792,365.776947 171.119461,365.729462 
	C188.116165,365.537750 205.116318,365.647339 222.115189,365.653473 
	C223.614136,365.653992 225.120178,365.630798 226.610245,365.762268 
	C228.564331,365.934692 229.693481,367.198029 229.680008,369.060791 
	C229.666351,370.952911 228.423019,372.098328 226.509506,372.271851 
	C225.185760,372.391907 223.846375,372.360626 222.513977,372.360779 
	C205.348450,372.363037 188.182831,372.330750 171.017517,372.391296 
	C168.860138,372.398895 166.079620,371.562683 165.362473,375.824188 
M357.837646,36.350464 
	C356.509644,37.043934 355.163055,37.704262 353.856354,38.435787 
	C326.805298,53.579685 314.003052,82.072166 318.675995,109.279724 
	C325.292023,147.800537 360.458008,170.795227 395.501587,165.916565 
	C433.953461,160.563385 461.506348,121.533432 452.176544,83.641518 
	C441.961639,42.155052 397.592682,18.837334 357.837646,36.350464 
M216.262817,622.747131 
	C237.917343,607.375427 247.570358,586.125305 244.336426,560.103699 
	C239.939331,524.722595 205.425064,499.243195 170.155823,504.504181 
	C123.573204,511.452728 97.890678,566.229980 126.441238,605.953552 
	C147.442627,635.173584 187.322540,643.043518 216.262817,622.747131 
M374.135681,562.616211 
	C373.168457,562.858154 372.205750,563.120178 371.233337,563.339233 
	C338.805786,570.646118 313.150208,602.336060 318.690613,639.844299 
	C324.488983,679.098816 362.096008,704.456848 400.055878,695.737671 
	C426.332977,689.702026 444.052551,673.722229 451.156036,647.730469 
	C458.500977,620.855164 451.598053,597.145020 430.621887,578.523010 
	C414.844116,564.515991 395.982758,559.316956 374.135681,562.616211 
M741.793823,384.340210 
	C744.271240,375.022919 744.400024,365.610870 742.641541,356.189819 
	C735.806091,319.570129 700.084229,295.602325 665.296265,304.194641 
	C629.845764,312.950562 607.787354,347.248505 615.526367,383.026367 
	C622.494019,415.238556 651.486633,437.057190 685.357300,433.337830 
	C714.402527,430.148407 732.922363,412.950562 741.793823,384.340210 
M566.171326,509.722046 
	C538.679810,522.741943 523.968689,550.258911 528.686646,579.895935 
	C534.646851,617.336670 571.252563,641.252441 608.221436,632.339844 
	C639.986267,624.681946 663.096924,596.234009 658.366760,560.734558 
	C652.609497,517.526001 607.257263,492.473267 566.171326,509.722046 
M146.670303,330.824219 
	C129.237396,308.156860 106.386871,298.084717 78.271904,304.179413 
	C43.923290,311.625458 22.355267,346.529724 29.378590,381.084137 
	C36.530487,416.271088 73.559074,440.117798 107.784599,432.058746 
	C149.661545,422.197998 174.964066,372.194794 146.670303,330.824219 
M536.927246,203.591110 
	C552.291016,226.940811 573.472168,238.333038 601.708679,234.636093 
	C634.413818,230.354111 659.240356,199.804932 658.851685,168.983383 
	C658.356384,129.701950 622.850830,98.654343 584.000610,104.467644 
	C538.747009,111.239090 513.834229,162.933701 536.927246,203.591110 
M138.560974,119.078857 
	C121.001228,134.699265 112.671844,153.915680 115.173576,177.639374 
	C119.077988,214.664719 156.584793,239.429611 187.919128,235.033081 
	C222.020142,230.248352 252.232849,197.140671 244.712357,157.690842 
	C240.099258,133.492233 225.660294,116.786461 202.871384,108.179001 
	C179.964493,99.527000 158.448975,103.461014 138.560974,119.078857 
z"/>
<path fill="#000000" opacity="1.000000" stroke="none" 
	d="
M429.934631,450.140015 
	C425.084778,453.502625 420.017853,453.945068 414.787598,453.030334 
	C413.115845,452.737976 412.111176,452.859680 410.985260,454.324493 
	C400.951508,467.377960 392.352295,468.356049 379.140747,458.084595 
	C378.622803,457.681976 378.087982,457.301086 377.683899,457.001251 
	C376.163971,457.029388 375.489441,458.099152 374.598419,458.803223 
	C365.936493,465.647461 355.170044,463.851868 349.259674,454.416565 
	C347.774384,452.045410 346.557037,450.111786 343.193665,450.403137 
	C335.365173,451.081268 330.276733,446.921051 326.991211,440.253418 
	C325.888306,438.015228 324.827209,436.500732 321.941498,436.298645 
	C312.495667,435.637146 307.129639,430.956757 304.887787,421.675171 
	C304.397156,419.643890 304.127808,418.125488 301.657990,417.337708 
	C291.937866,414.237427 287.832123,408.131500 288.803436,397.674774 
	C289.136902,394.084778 288.225952,392.698486 284.884766,391.772827 
	C277.679352,389.776611 270.598969,387.333649 263.434906,385.181732 
	C259.911285,384.123352 258.540375,382.477875 258.955963,378.325439 
	C259.962830,368.265137 260.113556,358.120941 260.685608,348.014893 
	C261.662994,330.748077 262.708801,313.485168 263.702606,296.219269 
	C263.934937,292.183044 266.045227,291.605774 269.469391,292.739655 
	C279.890533,296.190674 290.386902,299.420013 300.759949,303.007507 
	C303.673462,304.015076 306.031158,303.905273 308.821472,302.651276 
	C323.247314,296.168152 337.738647,289.828735 352.253845,283.547058 
	C361.677368,279.468872 371.370148,279.709747 381.053955,282.459290 
	C383.939301,283.278564 386.253815,283.153076 389.039734,281.694672 
	C399.358032,276.293182 409.794342,276.789673 420.160675,281.917908 
	C432.101776,287.825195 444.148560,293.521057 456.041321,299.522980 
	C461.862396,302.460724 467.558014,303.140106 473.817932,300.998871 
	C481.208313,298.470917 488.758453,296.406647 496.255798,294.197021 
	C498.320831,293.588440 500.421936,293.017273 502.547211,292.721222 
	C504.815826,292.405182 507.069702,292.717560 507.503265,295.580109 
	C507.884674,298.098206 506.147675,299.060150 504.056030,299.688354 
	C495.774536,302.175598 487.456604,304.554962 479.242981,307.251068 
	C468.890045,310.649475 459.216492,310.018066 449.454224,304.666107 
	C439.099304,298.989227 428.048798,294.590942 417.612793,289.049225 
	C407.137573,283.486694 397.398926,284.404816 388.039124,291.013306 
	C377.290771,298.602173 366.708252,306.428925 356.156464,314.290253 
	C354.331238,315.650085 352.734375,317.517517 351.515411,319.454651 
	C346.637421,327.206573 341.883789,335.039276 337.223846,342.924652 
	C335.307465,346.167480 333.833374,349.872681 336.803192,353.122284 
	C340.101868,356.731781 344.400879,358.603088 349.418915,357.144531 
	C353.010345,356.100677 355.984924,354.014771 358.290466,350.971008 
	C362.714813,345.129913 367.574768,339.586945 371.628052,333.503265 
	C380.250244,320.562012 398.294403,320.747192 407.980743,329.654114 
	C428.706787,348.712463 449.783234,367.389771 470.511536,386.445679 
	C473.247894,388.961273 475.546417,389.630005 478.873657,388.580994 
	C487.755280,385.780762 496.679901,383.116821 505.582855,380.383942 
	C507.014374,379.944519 508.392975,379.289886 509.848297,378.981140 
	C512.014282,378.521606 514.370483,378.175201 515.127808,381.091827 
	C515.804993,383.699829 514.296631,385.242920 511.990875,385.970673 
	C504.220703,388.423004 496.426208,390.798523 488.636017,393.187073 
	C487.047821,393.674072 485.460571,394.212250 483.833466,394.515289 
	C479.420135,395.337250 477.372192,396.837250 477.886841,402.360779 
	C478.739838,411.515442 472.420837,418.130554 463.167511,419.293518 
	C460.472382,419.632263 459.656708,420.743530 459.056122,423.217743 
	C456.417755,434.086823 451.123474,438.374939 440.142883,438.553040 
	C437.806763,438.590942 436.924561,439.522736 436.211914,441.455322 
	C434.984985,444.782501 433.085602,447.702087 429.934631,450.140015 
M429.860046,437.742828 
	C431.141693,434.762878 428.700531,433.554382 427.070770,432.030365 
	C417.214630,422.813660 406.682373,414.334473 397.227478,404.679382 
	C395.285156,402.695923 393.232056,400.388123 395.702789,397.817657 
	C398.244385,395.173462 400.500916,397.385254 402.529877,399.218262 
	C413.409271,409.046631 424.290619,418.872833 435.186340,428.683105 
	C439.813049,432.848938 444.761139,432.716339 448.722992,428.373596 
	C452.831329,423.870178 452.693542,418.468109 448.185089,414.307129 
	C444.390167,410.804779 440.417725,407.495544 436.557129,404.063416 
	C429.085846,397.421387 421.558014,390.839294 414.228516,384.043732 
	C411.982422,381.961273 407.921906,379.604065 411.334534,375.936676 
	C414.445862,372.593109 416.940399,376.207214 419.354767,378.017090 
	C420.019012,378.515015 420.607819,379.114044 421.227783,379.670563 
	C432.387024,389.688477 443.567841,399.682556 454.692230,409.739014 
	C458.414856,413.104309 462.231964,413.689667 466.432007,410.720581 
	C470.243805,408.025940 471.688293,403.317902 470.054138,398.765259 
	C468.711365,395.024536 466.027313,392.291077 463.173431,389.703522 
	C456.631042,383.771729 450.073212,377.856842 443.509399,371.948730 
	C430.010468,359.798248 416.568390,347.583496 402.976593,335.537750 
	C394.228729,327.785004 385.327576,328.575806 377.938934,337.674469 
	C373.424652,343.233490 369.176300,349.010193 364.865723,354.732239 
	C361.661499,358.985718 357.661804,362.227783 352.548645,363.685425 
	C344.941589,365.854065 337.937408,364.299194 332.183716,358.834503 
	C327.137512,354.041687 327.049438,347.454803 329.784332,342.138519 
	C337.503265,327.134033 344.348389,311.322296 359.883514,301.973389 
	C365.632355,298.513794 370.786713,294.066315 376.733795,289.685089 
	C367.655640,285.479462 359.890472,288.143463 352.385345,291.241150 
	C340.689148,296.068726 329.173401,301.334656 317.596313,306.449036 
	C312.963226,308.495789 308.620697,311.487518 302.955261,310.191071 
	C296.149292,334.908752 289.452850,359.228607 282.777008,383.473633 
	C289.028290,386.697968 293.955688,388.374329 299.662994,382.084839 
	C305.692902,375.439880 316.608124,375.774292 321.892151,382.826721 
	C326.328217,388.747314 330.845642,391.841583 338.150543,393.015656 
	C344.428284,394.024658 347.339142,400.039154 348.984467,405.830841 
	C350.695587,405.830841 352.025879,405.778259 353.350922,405.839264 
	C362.877869,406.277679 371.051270,414.078186 370.010254,422.782501 
	C369.519836,426.883209 370.955017,428.299011 373.936432,430.038147 
	C379.696960,433.398254 382.599640,438.485077 382.390686,445.359406 
	C382.173096,452.517670 389.130859,458.533020 396.329559,457.611237 
	C400.155670,457.121307 402.602570,454.716309 404.148499,451.357880 
	C405.650177,448.095581 402.987488,446.500977 401.197205,444.646942 
	C399.810883,443.211304 398.251831,441.943939 396.795929,440.573761 
	C391.700287,435.778198 386.589264,430.998444 381.542725,426.151611 
	C379.880829,424.555481 378.631165,422.525696 380.656464,420.518890 
	C382.561676,418.631012 384.657318,419.560974 386.450500,421.097412 
	C387.588928,422.072845 388.672852,423.111633 389.798920,424.101868 
	C396.679688,430.152618 403.465881,436.316040 410.475677,442.213654 
	C418.653809,449.094177 424.112152,447.908844 429.860046,437.742828 
M336.479523,399.881348 
	C331.751587,397.129639 328.107605,398.405762 324.820770,402.565155 
	C321.430298,406.855774 317.626648,410.817749 314.064026,414.975098 
	C310.640625,418.970032 311.084961,422.227356 315.517365,426.471985 
	C319.572754,430.355530 323.036987,430.598389 326.757385,426.748383 
	C330.787384,422.577972 334.627350,418.203339 338.299194,413.712524 
	C343.058899,407.891235 342.744141,405.552429 336.479523,399.881348 
M333.476654,437.009216 
	C337.902924,443.677551 341.988770,445.337860 346.280426,441.689880 
	C351.463684,437.284027 356.529663,432.677277 360.708527,427.257812 
	C364.298096,422.602661 364.018890,419.806122 359.969238,416.050964 
	C355.834656,412.217072 351.573151,411.996735 347.676392,415.900177 
	C342.982697,420.601990 338.579407,425.594604 334.072937,430.482056 
	C332.473145,432.217194 331.796783,434.146637 333.476654,437.009216 
M319.198090,396.792755 
	C321.547943,392.641998 319.232178,389.734894 316.323669,387.333405 
	C313.384521,384.906555 309.992920,383.601227 306.290955,386.027985 
	C302.042389,388.813019 298.741760,392.554535 296.268341,396.906799 
	C294.181488,400.578888 295.889709,405.750000 299.579987,408.286072 
	C304.262970,411.504272 306.483948,411.340210 310.359161,407.149200 
	C313.283600,403.986450 316.017578,400.647552 319.198090,396.792755 
M359.174408,454.550140 
	C364.974030,456.739532 374.112793,452.281769 375.293854,446.306366 
	C376.210205,441.670410 373.443970,438.534393 369.799347,435.995422 
	C366.418701,433.640381 363.957153,434.975189 361.547729,437.536621 
	C359.723419,439.476044 357.881897,441.434845 355.824371,443.110321 
	C353.208038,445.240875 353.107727,447.500305 354.978149,450.009644 
	C356.063354,451.465546 357.358337,452.765076 359.174408,454.550140 
z"/>
<path fill="#000000" opacity="1.000000" stroke="none" 
	d="
M392.981445,93.001480 
	C391.086456,94.667282 389.547211,96.212440 387.809174,97.486504 
	C383.857605,100.383255 379.700195,100.146843 375.979706,96.960640 
	C373.706085,95.013512 371.463745,93.029808 369.185913,91.087700 
	C368.956360,90.891983 368.578247,90.870552 367.694122,90.577950 
	C362.120544,96.582054 356.377960,102.776451 350.623749,108.960014 
	C349.490295,110.178032 348.351349,111.395859 347.144562,112.539444 
	C345.574982,114.026779 343.756805,114.985435 341.854919,113.257195 
	C339.924652,111.503136 340.081238,109.367203 341.691437,107.484879 
	C343.962341,104.830162 346.384430,102.304398 348.752441,99.733223 
	C353.826752,94.223503 358.958282,88.765381 363.965759,83.195679 
	C366.642609,80.218315 368.968262,80.211060 372.004944,82.905334 
	C375.417267,85.932892 378.089600,91.369766 382.672211,91.125740 
	C386.858551,90.902817 389.610016,85.847549 393.004242,82.947098 
	C399.690186,77.233765 406.173340,71.283157 413.080811,65.127304 
	C410.677643,63.904709 408.523987,64.431351 406.481323,64.367966 
	C404.188599,64.296822 402.449646,63.616669 402.517181,61.005604 
	C402.583038,58.457802 404.317627,57.687386 406.601501,57.695030 
	C412.428467,57.714535 418.255859,57.754433 424.082336,57.702129 
	C426.991943,57.676010 428.379822,58.939465 428.332520,61.894932 
	C428.273895,65.556496 428.341156,69.220009 428.348389,72.882690 
	C428.352844,75.140175 428.255951,77.582314 425.260834,77.589127 
	C422.593079,77.595192 421.674255,75.606567 421.643280,73.135826 
	C421.626984,71.835846 421.502319,70.537216 421.345642,67.849632 
	C411.467194,76.606400 402.357056,84.682076 392.981445,93.001480 
z"/>
<path fill="#000000" opacity="1.000000" stroke="none" 
	d="
M415.658234,113.000107 
	C415.665863,106.844467 415.676331,101.188751 415.679779,95.533035 
	C415.681396,92.913902 416.431763,90.776123 419.517548,90.843697 
	C422.264984,90.903870 423.165222,92.905876 423.169708,95.289574 
	C423.193115,107.764465 423.198395,120.239822 423.098969,132.714142 
	C423.078644,135.265411 422.005920,137.404266 418.936127,137.165726 
	C416.108368,136.946014 415.660889,134.812393 415.664062,132.463486 
	C415.672577,126.142342 415.661499,119.821182 415.658234,113.000107 
z"/>
<path fill="#000000" opacity="1.000000" stroke="none" 
	d="
M367.673279,117.126244 
	C367.673248,116.478218 367.660767,116.311371 367.675262,116.146904 
	C367.934265,113.206818 366.592194,108.945023 371.394409,108.962555 
	C376.091095,108.979698 375.094513,113.176422 375.153259,116.164482 
	C375.257538,121.465874 375.265533,126.772751 375.144257,132.073456 
	C375.084534,134.681305 374.422668,137.322433 371.053619,137.141815 
	C367.969757,136.976501 367.676025,134.494308 367.678711,132.027542 
	C367.683960,127.221214 367.675934,122.414871 367.673279,117.126244 
z"/>
<path fill="#000000" opacity="1.000000" stroke="none" 
	d="
M392.722534,111.345062 
	C393.036499,108.358093 394.612793,107.447113 396.924713,107.826385 
	C399.209778,108.201241 399.615204,110.008194 399.595276,111.966232 
	C399.526093,118.769737 399.447083,125.573158 399.362915,132.376495 
	C399.335114,134.621979 399.195618,137.050766 396.249237,137.106277 
	C393.100739,137.165588 392.685547,134.745773 392.689758,132.226761 
	C392.701141,125.420044 392.696808,118.613312 392.722534,111.345062 
z"/>
<path fill="#000000" opacity="1.000000" stroke="none" 
	d="
M351.881592,123.781998 
	C352.080139,127.332672 352.231171,130.479599 352.147095,133.620224 
	C352.092896,135.643967 351.069855,137.143585 348.819336,137.201981 
	C346.458923,137.263229 345.004578,135.962723 344.823792,133.672272 
	C344.615692,131.035904 344.749420,128.373444 344.707550,125.722740 
	C344.676086,123.730515 345.292603,122.117325 347.271179,121.338928 
	C349.429962,120.489632 350.708038,121.683876 351.881592,123.781998 
z"/>
<path fill="#000000" opacity="1.000000" stroke="none" 
	d="
M190.810181,600.173523 
	C184.642426,593.212158 178.711090,586.514404 172.834671,579.878723 
	C155.678955,590.444214 139.325851,582.927917 135.397720,563.187805 
	C134.846375,560.417175 135.226593,557.325562 132.316696,555.132874 
	C130.796280,553.987244 132.420914,552.099609 133.428711,550.784302 
	C135.955505,547.486450 138.417709,544.133667 141.063980,540.933716 
	C151.853470,527.886963 166.058594,523.161926 182.441727,524.924561 
	C189.611481,525.695984 194.855423,530.555054 198.705322,536.393860 
	C208.615387,551.423584 216.334946,567.677185 224.472565,583.687683 
	C226.216660,587.119080 225.759857,590.359070 223.117081,593.365417 
	C219.163300,597.863281 215.439499,602.562683 211.514801,607.086914 
	C206.611588,612.739197 202.446121,612.834229 197.392288,607.484924 
	C195.221970,605.187744 193.158600,602.789490 190.810181,600.173523 
M206.111557,602.493042 
	C209.552582,598.441101 212.854767,594.258789 216.490311,590.389587 
	C218.455963,588.297607 218.446350,586.672852 217.128387,584.258545 
	C213.146378,576.964172 209.588333,569.436951 205.558044,562.170715 
	C201.292297,554.479980 197.775955,546.329590 192.166092,539.431396 
	C189.191177,535.773254 185.932938,532.415710 181.029037,531.511475 
	C166.928848,528.911682 150.024658,537.252625 143.555191,549.936462 
	C137.850189,561.121521 145.664001,576.493591 158.081680,578.514221 
	C163.265930,579.357788 166.735107,576.210266 166.686966,570.718933 
	C166.669464,568.721802 166.618500,566.699158 168.715500,565.595337 
	C170.788132,565.604126 171.615417,567.214905 172.672424,568.429443 
	C181.951035,579.090637 191.175766,589.798889 200.492157,600.426880 
	C201.764221,601.878113 202.651199,604.631897 206.111557,602.493042 
z"/>
<path fill="#000000" opacity="1.000000" stroke="none" 
	d="
M425.350586,643.999939 
	C425.345917,650.493042 425.439301,656.488342 425.308197,662.478760 
	C425.179352,668.365295 422.610535,671.370056 416.901398,672.435486 
	C414.462555,672.890625 411.960388,673.222412 409.485413,673.232910 
	C393.004486,673.303040 376.522919,673.313843 360.041901,673.256897 
	C349.279999,673.219727 345.867432,669.954590 345.926361,659.257812 
	C346.029846,640.465759 346.303131,621.673462 346.677307,602.884705 
	C346.783844,597.534729 348.772705,595.790588 354.066437,595.685486 
	C359.558136,595.576294 365.058380,595.502869 370.545380,595.691284 
	C374.088715,595.812866 375.615021,594.680969 375.719666,590.907166 
	C375.926910,583.432312 379.866486,579.642334 386.737885,579.664795 
	C393.113007,579.685669 397.055634,583.605042 397.231903,590.990723 
	C397.324341,594.865234 398.810028,595.856018 402.324890,595.700378 
	C406.976959,595.494507 411.645691,595.620789 416.306580,595.667603 
	C423.166901,595.736450 425.322998,597.836060 425.339661,604.544189 
	C425.371948,617.529419 425.349884,630.514709 425.350586,643.999939 
M353.196838,659.231689 
	C353.087341,662.807556 353.272614,665.852478 358.271027,665.815247 
	C376.575989,665.678833 394.882629,665.731201 413.188446,665.783020 
	C416.984680,665.793762 418.663940,664.014526 418.661865,660.324829 
	C418.651886,642.351440 418.665955,624.378113 418.661407,606.404724 
	C418.661011,604.893311 418.702667,602.877197 416.877380,602.746399 
	C410.453094,602.286133 403.565826,600.690796 397.704987,603.387817 
	C390.791138,606.569336 383.285675,606.682678 377.444427,604.542664 
	C371.075806,602.209473 365.223206,602.893799 359.129059,602.529602 
	C354.855316,602.274231 353.105408,604.282532 353.168793,608.869385 
	C353.396484,625.341553 353.218903,641.819275 353.196838,659.231689 
M390.053650,588.819946 
	C388.943939,586.765320 387.316620,586.017944 385.067413,586.849670 
	C383.096405,587.578491 382.225494,589.004211 382.310547,591.090820 
	C382.364685,592.419312 382.408142,593.757385 382.314423,595.081116 
	C382.074249,598.473511 384.202850,598.725891 386.798004,598.787842 
	C389.543243,598.853333 390.867279,597.818909 390.659973,595.002991 
	C390.526031,593.184387 390.467377,591.360291 390.053650,588.819946 
z"/>
<path fill="#000000" opacity="1.000000" stroke="none" 
	d="
M712.075928,341.390198 
	C708.711487,344.993378 709.187134,347.482483 712.027344,351.345428 
	C729.228271,374.740234 716.714844,410.209320 685.015625,414.373779 
	C662.917542,417.276855 644.896118,405.452606 639.465271,384.769592 
	C633.590637,362.396545 647.835938,339.871796 670.562988,335.575623 
	C671.704224,335.359863 672.831543,335.043030 673.942139,334.698700 
	C675.560364,334.197113 675.718384,332.881256 675.578613,331.475647 
	C675.437134,330.052399 674.482483,329.500458 673.179077,329.451080 
	C671.514465,329.388000 669.848022,329.373505 668.182251,329.342926 
	C665.792664,329.299042 664.336670,328.037811 664.255615,325.715088 
	C664.173767,323.367615 665.700378,321.839020 667.948853,321.799652 
	C675.609375,321.665497 683.275940,321.657745 690.935486,321.821228 
	C693.294434,321.871552 694.374695,323.622925 694.222412,325.985870 
	C694.078003,328.228088 692.704651,329.180542 690.606506,329.310120 
	C689.775330,329.361481 688.941833,329.391602 688.109070,329.401093 
	C686.312683,329.421570 685.346069,330.229889 685.266724,332.108978 
	C685.186890,333.998871 685.648315,335.222382 687.790955,335.690643 
	C690.375122,336.255402 693.026611,336.913422 695.369751,338.088013 
	C699.089233,339.952515 702.139893,341.523010 705.939026,337.604950 
	C708.514771,334.948578 711.294006,336.749878 712.075928,341.390198 
M648.084229,387.378082 
	C654.655396,401.073730 665.472412,408.314514 680.720642,407.554596 
	C702.086365,406.489899 714.194580,388.030365 712.405823,371.740814 
	C710.921753,358.226196 703.084778,348.704071 690.073059,344.232605 
	C676.910339,339.709259 664.768005,342.449066 655.047546,352.179626 
	C645.434570,361.802521 642.877502,373.632904 648.084229,387.378082 
z"/>
<path fill="#000000" opacity="1.000000" stroke="none" 
	d="
M572.083923,610.074158 
	C558.057800,601.415344 551.263916,588.686829 552.165710,573.037842 
	C553.239502,554.401550 563.552551,541.932617 581.703735,536.482971 
	C583.585632,535.917908 585.618103,535.848328 587.583740,535.569946 
	C589.613770,535.282410 591.200928,534.400513 591.036194,532.117615 
	C590.876587,529.906982 588.952332,530.446655 587.547913,530.323792 
	C586.720825,530.251465 585.881226,530.327759 585.053040,530.262634 
	C582.544312,530.065491 580.870911,528.749451 580.962646,526.189758 
	C581.046997,523.836487 582.767639,522.718262 585.048889,522.702393 
	C591.374207,522.658264 597.700928,522.616211 604.025146,522.708435 
	C606.513306,522.744629 608.174500,524.138916 608.136902,526.742554 
	C608.101807,529.170471 606.444275,530.149536 604.159851,530.313965 
	C602.256653,530.450928 599.861328,529.886841 599.496765,532.792969 
	C599.068787,536.205505 602.134094,535.589905 603.900574,536.334106 
	C606.190796,537.298889 608.774963,537.686951 610.895203,538.908813 
	C615.160767,541.366943 618.935364,543.187256 622.895630,538.192871 
	C624.239197,536.498474 627.131042,536.566589 628.721191,538.494873 
	C630.111755,540.181030 629.856201,542.604126 628.139282,543.932068 
	C623.826843,547.267639 625.401794,549.963013 627.824036,553.815918 
	C636.199036,567.137390 636.803711,581.231018 629.145081,594.986633 
	C621.692200,608.372742 609.887756,615.129150 594.386841,615.460327 
	C586.533875,615.628052 579.172302,614.349487 572.083923,610.074158 
M590.022766,608.338989 
	C592.871643,608.935608 595.629150,608.306274 598.432556,607.850281 
	C617.695618,604.717346 630.528564,586.664673 626.253784,568.618713 
	C621.664673,549.245605 601.303589,537.837097 582.489441,544.096924 
	C567.843628,548.969971 558.252991,562.933105 559.373108,577.752441 
	C560.518372,592.904358 572.939209,605.553894 590.022766,608.338989 
z"/>
<path fill="#000000" opacity="1.000000" stroke="none" 
	d="
M69.024445,405.380737 
	C65.700272,405.354279 62.857067,405.498322 60.044483,405.268188 
	C53.393356,404.723877 49.729607,400.868073 49.684612,394.207764 
	C49.594666,380.892761 49.597897,367.576324 49.687214,354.261292 
	C49.727112,348.313019 52.379265,345.395599 58.276699,344.647949 
	C61.733250,344.209747 65.231415,343.923462 68.712372,343.907898 
	C71.686607,343.894592 72.670303,342.714905 72.923683,339.774963 
	C73.789543,329.728424 75.136169,328.641357 85.329506,328.645447 
	C90.655724,328.647552 95.982140,328.625092 101.308113,328.662689 
	C110.732864,328.729279 113.048431,331.052429 113.210487,340.482361 
	C113.227188,341.454590 113.351540,342.424988 113.448456,343.690063 
	C118.371223,344.022766 123.132019,344.442047 127.902008,344.642731 
	C134.152740,344.905670 137.020584,347.065918 137.157364,353.270142 
	C137.454437,366.745239 137.545227,380.238464 137.174973,393.709290 
	C136.969666,401.178253 131.302963,405.226593 121.949287,405.294586 
	C104.473351,405.421570 86.996063,405.362671 69.024445,405.380737 
M55.459702,374.148926 
	C55.415703,380.302338 55.440887,386.457245 55.304264,392.608612 
	C55.207291,396.974792 57.059654,398.979156 61.550438,398.965149 
	C82.179794,398.900696 102.809654,399.009094 123.439148,398.965759 
	C128.800171,398.954498 130.512909,397.148285 130.628418,391.683929 
	C130.733871,386.695068 130.480545,381.694427 130.708405,376.713806 
	C130.873840,373.097504 129.287094,372.088623 125.967453,372.186981 
	C120.648575,372.344513 115.319405,372.293335 109.998100,372.173584 
	C107.150291,372.109528 105.289848,372.605560 104.997223,376.064240 
	C104.708916,379.471802 101.711288,380.602081 98.888641,381.010254 
	C94.780098,381.604340 90.598122,381.609528 86.473755,380.797394 
	C83.277962,380.168121 80.807892,378.806305 80.676323,375.060791 
	C80.632950,373.826233 80.272934,372.446014 78.879395,372.470459 
	C71.173523,372.605743 63.388504,370.866913 55.459702,374.148926 
M128.239792,351.156189 
	C121.485298,348.877167 114.738693,351.482819 107.946495,351.250336 
	C92.323158,350.715515 76.669014,351.133942 61.028633,351.008118 
	C56.915016,350.975067 55.258492,352.816223 55.339317,356.708862 
	C55.373859,358.372223 55.421661,360.044312 55.297619,361.700012 
	C55.071220,364.721893 56.427876,365.880402 59.397465,365.828552 
	C65.220718,365.726868 71.047295,365.829620 76.872337,365.806244 
	C78.183426,365.800995 79.478729,365.795715 80.656189,364.896362 
	C88.177696,359.151611 98.463768,359.162292 105.661163,364.922607 
	C106.676682,365.735352 107.785820,365.814667 108.935211,365.817810 
	C114.926666,365.834351 120.918343,365.827362 126.909676,365.788971 
	C128.219391,365.780579 130.169128,365.881958 130.229218,364.330994 
	C130.396042,360.025604 132.249573,355.474457 128.239792,351.156189 
M106.585754,342.067444 
	C106.465218,339.224976 107.767982,335.119873 103.571091,334.762329 
	C96.651634,334.172852 89.624046,334.294983 82.682381,334.742676 
	C78.803207,334.992889 79.405823,338.615387 79.353111,341.426453 
	C79.300858,344.213501 80.988106,344.666351 83.256119,344.655029 
	C89.735802,344.622681 96.215828,344.665497 102.695724,344.665619 
	C104.216957,344.665649 105.740746,344.619232 106.585754,342.067444 
M87.495232,373.022522 
	C91.491776,376.229523 98.007507,375.867706 98.529526,372.339600 
	C98.890198,369.902008 99.153114,367.338348 95.330772,366.965179 
	C89.206367,366.367340 87.589821,367.288147 87.495232,373.022522 
z"/>
<path fill="#000000" opacity="1.000000" stroke="none" 
	d="
M581.002319,124.618759 
	C593.818665,124.624825 606.135803,124.585541 618.452332,124.651360 
	C629.117920,124.708344 633.336914,128.944855 633.340454,139.444260 
	C633.347290,159.750427 633.362244,180.056625 633.327148,200.362732 
	C633.311584,209.410812 629.269531,213.458603 620.229919,213.460800 
	C602.587036,213.465103 584.944031,213.432098 567.301392,213.349030 
	C558.857117,213.309265 554.683533,209.160248 554.667786,200.801682 
	C554.628540,179.996246 554.641968,159.190689 554.659546,138.385193 
	C554.667236,129.291870 558.790466,125.028053 568.020569,124.678444 
	C572.176147,124.521042 576.341736,124.630600 581.002319,124.618759 
M569.853027,206.645599 
	C586.015137,206.642593 602.177185,206.654068 618.339294,206.629486 
	C624.766846,206.619705 626.627441,204.778580 626.637939,198.310577 
	C626.669312,178.982773 626.666931,159.654877 626.640808,140.327072 
	C626.632080,133.886505 625.158386,132.211655 618.766724,132.167892 
	C602.272644,132.054932 585.776855,132.058350 569.282776,132.166626 
	C562.781067,132.209305 561.369690,133.774979 561.359985,140.231506 
	C561.330688,159.725922 561.332092,179.220444 561.363098,198.714859 
	C561.372742,204.765259 562.868469,206.262650 569.853027,206.645599 
z"/>
<path fill="#000000" opacity="1.000000" stroke="none" 
	d="
M134.871292,155.273773 
	C140.857437,136.973434 152.610748,125.493141 171.307007,121.527298 
	C196.642090,116.153214 223.020691,134.177185 227.248886,159.795898 
	C231.571045,185.983963 217.785248,208.669724 193.353455,215.573776 
	C166.143692,223.262848 137.799698,204.763306 133.538574,176.894852 
	C132.422867,169.597809 133.358749,162.684677 134.871292,155.273773 
M194.248642,204.850220 
	C197.766205,200.164398 197.791214,195.851349 193.177795,191.739517 
	C191.586288,190.321045 190.481796,188.363144 189.109879,186.688477 
	C188.369629,185.784912 187.550064,184.829453 186.247375,184.911636 
	C178.822403,185.380020 170.551117,183.888672 166.828278,193.136292 
	C166.648666,193.582413 166.227341,193.929230 165.928329,194.329575 
	C162.317795,199.163467 164.709518,206.651138 170.622345,208.507721 
	C176.785889,210.443024 183.063004,210.116486 189.344055,208.931641 
	C191.489288,208.526978 193.034256,207.511902 194.248642,204.850220 
M208.900330,155.397491 
	C212.237106,150.519043 212.769257,144.425629 209.863251,141.211914 
	C205.928909,136.860947 201.237442,133.415054 195.889877,130.997696 
	C192.037231,129.256104 183.161652,133.633224 182.402222,137.452194 
	C180.378479,147.629242 182.510300,151.740952 191.407043,157.187561 
	C194.792984,159.260422 197.672287,159.502365 201.124527,158.060410 
	C203.411057,157.105362 205.832977,156.474472 208.900330,155.397491 
M196.498962,185.019867 
	C198.136566,187.110260 199.772659,189.201828 201.412338,191.290588 
	C202.345245,192.479004 203.291443,193.519043 205.022964,193.605545 
	C210.599442,193.884155 216.055984,190.382965 218.011978,184.955750 
	C218.963470,182.315689 219.807953,179.607864 220.373856,176.863297 
	C222.360855,167.226425 214.904648,160.451141 205.632996,163.375717 
	C204.526886,163.724625 203.434052,164.116531 202.340042,164.502594 
	C195.420273,166.944565 191.856049,178.359116 196.498962,185.019867 
M158.675140,158.704559 
	C161.977676,159.973297 164.790634,159.462097 168.071884,157.736603 
	C174.736618,154.231842 176.743820,149.333130 176.068130,141.986450 
	C175.197083,132.515717 168.241425,128.320938 160.082855,133.197632 
	C156.208023,135.513763 152.763611,138.355423 149.802032,141.787506 
	C148.065735,143.799637 147.700317,145.780777 148.098434,148.574188 
	C148.955002,154.584122 152.052689,157.760406 158.675140,158.704559 
M166.083084,178.075775 
	C164.906128,170.261047 161.857529,164.658539 152.756638,163.645050 
	C146.455322,162.943344 139.538910,168.130920 140.444336,174.489838 
	C141.221024,179.944641 142.985580,185.146622 146.021301,189.818680 
	C147.661804,192.343445 155.753784,195.068573 157.566376,193.131348 
	C161.402664,189.031311 166.086975,185.193497 166.083084,178.075775 
z"/>
<path fill="#000000" opacity="1.000000" stroke="none" 
	d="
M182.292603,541.405945 
	C183.741486,539.874023 185.171814,538.608276 186.651825,540.527405 
	C189.669983,544.440979 193.692795,547.595825 195.148132,550.760803 
	C189.541077,556.903015 184.442764,562.487976 179.175613,568.257874 
	C175.586533,565.214050 172.759277,561.551453 169.770432,558.038818 
	C168.168198,556.155762 169.026596,554.794739 170.489166,553.346863 
	C174.387054,549.487976 178.209930,545.553284 182.292603,541.405945 
z"/>
<path fill="#000000" opacity="1.000000" stroke="none" 
	d="
M374.852417,641.528442 
	C382.260590,638.180969 389.351715,638.607483 396.432922,641.244019 
	C398.805023,642.127258 400.801300,643.615112 402.431366,645.557678 
	C404.285736,647.767578 406.193146,650.295105 405.169983,653.174622 
	C404.069702,656.271240 400.842346,654.838257 398.579193,654.886230 
	C390.121857,655.066040 381.658081,655.008545 373.197693,654.933167 
	C371.133820,654.914856 368.520660,655.518738 367.460419,653.059387 
	C366.462280,650.744263 367.728271,648.543213 368.966187,646.547791 
	C370.312103,644.378174 372.190521,642.781189 374.852417,641.528442 
z"/>
<path fill="#000000" opacity="1.000000" stroke="none" 
	d="
M396.563965,620.949585 
	C398.012054,628.095520 395.154266,633.284546 389.213440,634.952881 
	C383.408691,636.583130 377.396667,633.630920 375.363831,628.152161 
	C373.541718,623.241272 375.939453,617.563843 380.847504,615.167786 
	C386.822937,612.250793 392.554901,614.243591 396.563965,620.949585 
z"/>
<path fill="#000000" opacity="1.000000" stroke="none" 
	d="
M678.209839,348.139954 
	C681.799805,347.535614 683.270996,349.283569 683.582764,352.159210 
	C683.869019,354.799957 684.036377,357.470978 683.995422,360.124664 
	C683.959229,362.470306 684.702209,364.085510 686.556763,365.676392 
	C691.544922,369.955261 691.722412,377.631958 687.216797,382.022980 
	C683.423584,385.719727 675.513123,385.305176 671.788025,381.214386 
	C667.309692,376.296448 667.596008,369.449036 673.057129,365.451996 
	C675.824829,363.426270 675.375916,361.067535 675.697571,358.492462 
	C676.127014,355.054840 673.999268,351.038757 678.209839,348.139954 
M678.786133,376.402313 
	C681.043823,376.676270 682.487183,375.807251 682.090088,373.412964 
	C681.853333,371.985291 680.539185,371.034332 679.054626,371.676178 
	C676.857727,372.626068 676.712158,374.258026 678.786133,376.402313 
z"/>
<path fill="#000000" opacity="1.000000" stroke="none" 
	d="
M611.926514,558.687073 
	C607.541382,565.071106 601.905823,570.114502 600.207764,577.901306 
	C599.242615,582.327271 595.174622,584.023438 590.721924,583.147278 
	C586.878845,582.391113 584.680725,579.837708 584.683167,575.726562 
	C584.685852,571.229797 586.938782,568.467529 591.326111,567.770386 
	C593.324890,567.452759 594.563171,566.500977 595.831909,565.061401 
	C599.127869,561.321533 602.534180,557.672485 606.028076,554.116455 
	C607.558960,552.558411 609.520325,552.167725 611.456543,553.575562 
	C613.297363,554.914001 613.278931,556.584900 611.926514,558.687073 
z"/>
<path fill="#000000" opacity="1.000000" stroke="none" 
	d="
M603.851013,150.152985 
	C601.761719,149.217514 600.294556,148.096542 600.939148,145.856323 
	C601.599182,143.562714 603.626831,143.735474 605.462830,143.712158 
	C606.794495,143.695251 608.126648,143.706070 609.458557,143.706345 
	C619.426819,143.708328 619.696838,143.981171 619.169983,154.129654 
	C619.041443,156.604919 619.181580,159.397552 615.931885,160.087952 
	C613.862854,160.527542 612.990173,159.100418 612.190369,153.884003 
	C610.103333,156.374954 608.340271,158.463852 606.593811,160.566513 
	C602.012695,166.082001 596.522949,166.743057 591.687439,161.660034 
	C588.373474,158.176514 586.325500,158.212326 583.648132,162.122116 
	C581.782349,164.846756 579.378418,167.228806 577.047913,169.599792 
	C575.589233,171.083878 573.670593,172.137344 571.772766,170.351227 
	C569.997131,168.680115 570.445862,166.627533 571.836670,164.961411 
	C574.928589,161.257660 578.003906,157.514816 581.391235,154.089737 
	C585.137146,150.301971 591.010437,150.627533 594.792297,154.478561 
	C596.118530,155.829071 597.132996,158.678284 599.347961,157.338242 
	C601.765564,155.875656 604.649536,154.038681 603.851013,150.152985 
z"/>
<path fill="#000000" opacity="1.000000" stroke="none" 
	d="
M579.210632,181.059204 
	C583.088745,177.119675 587.245300,176.952332 591.877502,178.611359 
	C596.776062,180.365753 596.429199,186.103592 600.246704,189.312927 
	C603.428040,185.331757 604.751282,180.690262 606.755798,176.424133 
	C607.816895,174.165924 608.711914,171.823090 609.880981,169.624329 
	C610.769104,167.953934 612.401611,167.369583 614.159546,168.090912 
	C615.949951,168.825592 616.680359,170.467270 615.990112,172.210999 
	C613.112183,179.480835 610.433594,186.847107 606.629822,193.711304 
	C605.569031,195.625565 603.767822,196.331711 601.594177,196.373566 
	C596.628235,196.469101 593.565552,193.904846 591.469360,189.632812 
	C588.249390,183.070587 586.675049,182.949478 582.456299,188.766113 
	C580.696167,191.192978 579.054932,193.707047 577.265503,196.111465 
	C575.983154,197.834610 574.228943,199.121521 572.154907,197.710632 
	C569.973938,196.226913 570.142273,193.985046 571.505859,191.963562 
	C573.924683,188.377563 576.468506,184.875839 579.210632,181.059204 
z"/>
</svg>